%TF.GenerationSoftware,KiCad,Pcbnew,(5.1.5)-3*%
%TF.CreationDate,2021-04-07T12:53:55+01:00*%
%TF.ProjectId,HT07,48543037-2e6b-4696-9361-645f70636258,rev?*%
%TF.SameCoordinates,Original*%
%TF.FileFunction,Legend,Top*%
%TF.FilePolarity,Positive*%
%FSLAX46Y46*%
G04 Gerber Fmt 4.6, Leading zero omitted, Abs format (unit mm)*
G04 Created by KiCad (PCBNEW (5.1.5)-3) date 2021-04-07 12:53:55*
%MOMM*%
%LPD*%
G04 APERTURE LIST*
%ADD10C,0.150000*%
%ADD11C,0.100000*%
%ADD12C,0.120000*%
%ADD13C,0.010000*%
G04 APERTURE END LIST*
D10*
X84899500Y-79375000D02*
X90932000Y-79375000D01*
X84899500Y-76835000D02*
X90932000Y-76835000D01*
X84899500Y-74295000D02*
X90932000Y-74295000D01*
X87947500Y-72136000D02*
X87947500Y-81534000D01*
X88362500Y-79874000D02*
X89162500Y-79874000D01*
X88552976Y-81006904D02*
X88552976Y-80206904D01*
X88857738Y-80206904D01*
X88933928Y-80245000D01*
X88972023Y-80283095D01*
X89010119Y-80359285D01*
X89010119Y-80473571D01*
X88972023Y-80549761D01*
X88933928Y-80587857D01*
X88857738Y-80625952D01*
X88552976Y-80625952D01*
X89162500Y-79874000D02*
X89962500Y-79874000D01*
X89810119Y-81006904D02*
X89543452Y-80625952D01*
X89352976Y-81006904D02*
X89352976Y-80206904D01*
X89657738Y-80206904D01*
X89733928Y-80245000D01*
X89772023Y-80283095D01*
X89810119Y-80359285D01*
X89810119Y-80473571D01*
X89772023Y-80549761D01*
X89733928Y-80587857D01*
X89657738Y-80625952D01*
X89352976Y-80625952D01*
X89962500Y-79874000D02*
X90762500Y-79874000D01*
X90572023Y-80245000D02*
X90495833Y-80206904D01*
X90381547Y-80206904D01*
X90267261Y-80245000D01*
X90191071Y-80321190D01*
X90152976Y-80397380D01*
X90114880Y-80549761D01*
X90114880Y-80664047D01*
X90152976Y-80816428D01*
X90191071Y-80892619D01*
X90267261Y-80968809D01*
X90381547Y-81006904D01*
X90457738Y-81006904D01*
X90572023Y-80968809D01*
X90610119Y-80930714D01*
X90610119Y-80664047D01*
X90457738Y-80664047D01*
X88362500Y-77334000D02*
X89162500Y-77334000D01*
X89010119Y-78466904D02*
X88743452Y-78085952D01*
X88552976Y-78466904D02*
X88552976Y-77666904D01*
X88857738Y-77666904D01*
X88933928Y-77705000D01*
X88972023Y-77743095D01*
X89010119Y-77819285D01*
X89010119Y-77933571D01*
X88972023Y-78009761D01*
X88933928Y-78047857D01*
X88857738Y-78085952D01*
X88552976Y-78085952D01*
X89162500Y-77334000D02*
X89924404Y-77334000D01*
X89314880Y-78428809D02*
X89429166Y-78466904D01*
X89619642Y-78466904D01*
X89695833Y-78428809D01*
X89733928Y-78390714D01*
X89772023Y-78314523D01*
X89772023Y-78238333D01*
X89733928Y-78162142D01*
X89695833Y-78124047D01*
X89619642Y-78085952D01*
X89467261Y-78047857D01*
X89391071Y-78009761D01*
X89352976Y-77971666D01*
X89314880Y-77895476D01*
X89314880Y-77819285D01*
X89352976Y-77743095D01*
X89391071Y-77705000D01*
X89467261Y-77666904D01*
X89657738Y-77666904D01*
X89772023Y-77705000D01*
X89924404Y-77334000D02*
X90533928Y-77334000D01*
X90000595Y-77666904D02*
X90457738Y-77666904D01*
X90229166Y-78466904D02*
X90229166Y-77666904D01*
X88438690Y-75126904D02*
X88895833Y-75126904D01*
X88667261Y-75926904D02*
X88667261Y-75126904D01*
X89124404Y-75888809D02*
X89238690Y-75926904D01*
X89429166Y-75926904D01*
X89505357Y-75888809D01*
X89543452Y-75850714D01*
X89581547Y-75774523D01*
X89581547Y-75698333D01*
X89543452Y-75622142D01*
X89505357Y-75584047D01*
X89429166Y-75545952D01*
X89276785Y-75507857D01*
X89200595Y-75469761D01*
X89162500Y-75431666D01*
X89124404Y-75355476D01*
X89124404Y-75279285D01*
X89162500Y-75203095D01*
X89200595Y-75165000D01*
X89276785Y-75126904D01*
X89467261Y-75126904D01*
X89581547Y-75165000D01*
X89810119Y-75126904D02*
X90267261Y-75126904D01*
X90038690Y-75926904D02*
X90038690Y-75126904D01*
X89010119Y-73386904D02*
X88743452Y-73005952D01*
X88552976Y-73386904D02*
X88552976Y-72586904D01*
X88857738Y-72586904D01*
X88933928Y-72625000D01*
X88972023Y-72663095D01*
X89010119Y-72739285D01*
X89010119Y-72853571D01*
X88972023Y-72929761D01*
X88933928Y-72967857D01*
X88857738Y-73005952D01*
X88552976Y-73005952D01*
X89276785Y-72586904D02*
X89810119Y-73386904D01*
X89810119Y-72586904D02*
X89276785Y-73386904D01*
X90114880Y-72853571D02*
X90724404Y-73082142D01*
X90114880Y-73310714D01*
X85987500Y-72853571D02*
X85377976Y-73082142D01*
X85987500Y-73310714D01*
X86254166Y-72586904D02*
X86711309Y-72586904D01*
X86482738Y-73386904D02*
X86482738Y-72586904D01*
X86901785Y-72586904D02*
X87435119Y-73386904D01*
X87435119Y-72586904D02*
X86901785Y-73386904D01*
X85797023Y-75165000D02*
X85720833Y-75126904D01*
X85606547Y-75126904D01*
X85492261Y-75165000D01*
X85416071Y-75241190D01*
X85377976Y-75317380D01*
X85339880Y-75469761D01*
X85339880Y-75584047D01*
X85377976Y-75736428D01*
X85416071Y-75812619D01*
X85492261Y-75888809D01*
X85606547Y-75926904D01*
X85682738Y-75926904D01*
X85797023Y-75888809D01*
X85835119Y-75850714D01*
X85835119Y-75584047D01*
X85682738Y-75584047D01*
X86177976Y-75926904D02*
X86177976Y-75126904D01*
X86635119Y-75926904D01*
X86635119Y-75126904D01*
X87016071Y-75926904D02*
X87016071Y-75126904D01*
X87206547Y-75126904D01*
X87320833Y-75165000D01*
X87397023Y-75241190D01*
X87435119Y-75317380D01*
X87473214Y-75469761D01*
X87473214Y-75584047D01*
X87435119Y-75736428D01*
X87397023Y-75812619D01*
X87320833Y-75888809D01*
X87206547Y-75926904D01*
X87016071Y-75926904D01*
X85797023Y-77705000D02*
X85720833Y-77666904D01*
X85606547Y-77666904D01*
X85492261Y-77705000D01*
X85416071Y-77781190D01*
X85377976Y-77857380D01*
X85339880Y-78009761D01*
X85339880Y-78124047D01*
X85377976Y-78276428D01*
X85416071Y-78352619D01*
X85492261Y-78428809D01*
X85606547Y-78466904D01*
X85682738Y-78466904D01*
X85797023Y-78428809D01*
X85835119Y-78390714D01*
X85835119Y-78124047D01*
X85682738Y-78124047D01*
X86177976Y-78466904D02*
X86177976Y-77666904D01*
X86635119Y-78466904D01*
X86635119Y-77666904D01*
X87016071Y-78466904D02*
X87016071Y-77666904D01*
X87206547Y-77666904D01*
X87320833Y-77705000D01*
X87397023Y-77781190D01*
X87435119Y-77857380D01*
X87473214Y-78009761D01*
X87473214Y-78124047D01*
X87435119Y-78276428D01*
X87397023Y-78352619D01*
X87320833Y-78428809D01*
X87206547Y-78466904D01*
X87016071Y-78466904D01*
X85263690Y-80206904D02*
X85530357Y-81006904D01*
X85797023Y-80206904D01*
X86063690Y-81006904D02*
X86063690Y-80206904D01*
X86254166Y-80206904D01*
X86368452Y-80245000D01*
X86444642Y-80321190D01*
X86482738Y-80397380D01*
X86520833Y-80549761D01*
X86520833Y-80664047D01*
X86482738Y-80816428D01*
X86444642Y-80892619D01*
X86368452Y-80968809D01*
X86254166Y-81006904D01*
X86063690Y-81006904D01*
X86863690Y-81006904D02*
X86863690Y-80206904D01*
X87054166Y-80206904D01*
X87168452Y-80245000D01*
X87244642Y-80321190D01*
X87282738Y-80397380D01*
X87320833Y-80549761D01*
X87320833Y-80664047D01*
X87282738Y-80816428D01*
X87244642Y-80892619D01*
X87168452Y-80968809D01*
X87054166Y-81006904D01*
X86863690Y-81006904D01*
X105329619Y-71989904D02*
X105062952Y-71608952D01*
X104872476Y-71989904D02*
X104872476Y-71189904D01*
X105177238Y-71189904D01*
X105253428Y-71228000D01*
X105291523Y-71266095D01*
X105329619Y-71342285D01*
X105329619Y-71456571D01*
X105291523Y-71532761D01*
X105253428Y-71570857D01*
X105177238Y-71608952D01*
X104872476Y-71608952D01*
X105672476Y-71570857D02*
X105939142Y-71570857D01*
X106053428Y-71989904D02*
X105672476Y-71989904D01*
X105672476Y-71189904D01*
X106053428Y-71189904D01*
X106358190Y-71951809D02*
X106472476Y-71989904D01*
X106662952Y-71989904D01*
X106739142Y-71951809D01*
X106777238Y-71913714D01*
X106815333Y-71837523D01*
X106815333Y-71761333D01*
X106777238Y-71685142D01*
X106739142Y-71647047D01*
X106662952Y-71608952D01*
X106510571Y-71570857D01*
X106434380Y-71532761D01*
X106396285Y-71494666D01*
X106358190Y-71418476D01*
X106358190Y-71342285D01*
X106396285Y-71266095D01*
X106434380Y-71228000D01*
X106510571Y-71189904D01*
X106701047Y-71189904D01*
X106815333Y-71228000D01*
X107158190Y-71570857D02*
X107424857Y-71570857D01*
X107539142Y-71989904D02*
X107158190Y-71989904D01*
X107158190Y-71189904D01*
X107539142Y-71189904D01*
X107767714Y-71189904D02*
X108224857Y-71189904D01*
X107996285Y-71989904D02*
X107996285Y-71189904D01*
X87344214Y-94314380D02*
X87382309Y-94352476D01*
X87420404Y-94466761D01*
X87420404Y-94542952D01*
X87382309Y-94657238D01*
X87306119Y-94733428D01*
X87229928Y-94771523D01*
X87077547Y-94809619D01*
X86963261Y-94809619D01*
X86810880Y-94771523D01*
X86734690Y-94733428D01*
X86658500Y-94657238D01*
X86620404Y-94542952D01*
X86620404Y-94466761D01*
X86658500Y-94352476D01*
X86696595Y-94314380D01*
X87420404Y-93514380D02*
X87039452Y-93781047D01*
X87420404Y-93971523D02*
X86620404Y-93971523D01*
X86620404Y-93666761D01*
X86658500Y-93590571D01*
X86696595Y-93552476D01*
X86772785Y-93514380D01*
X86887071Y-93514380D01*
X86963261Y-93552476D01*
X87001357Y-93590571D01*
X87039452Y-93666761D01*
X87039452Y-93971523D01*
X87420404Y-92752476D02*
X87420404Y-93209619D01*
X87420404Y-92981047D02*
X86620404Y-92981047D01*
X86734690Y-93057238D01*
X86810880Y-93133428D01*
X86848976Y-93209619D01*
X86696595Y-92447714D02*
X86658500Y-92409619D01*
X86620404Y-92333428D01*
X86620404Y-92142952D01*
X86658500Y-92066761D01*
X86696595Y-92028666D01*
X86772785Y-91990571D01*
X86848976Y-91990571D01*
X86963261Y-92028666D01*
X87420404Y-92485809D01*
X87420404Y-91990571D01*
X86696595Y-91685809D02*
X86658500Y-91647714D01*
X86620404Y-91571523D01*
X86620404Y-91381047D01*
X86658500Y-91304857D01*
X86696595Y-91266761D01*
X86772785Y-91228666D01*
X86848976Y-91228666D01*
X86963261Y-91266761D01*
X87420404Y-91723904D01*
X87420404Y-91228666D01*
X86620404Y-90733428D02*
X86620404Y-90657238D01*
X86658500Y-90581047D01*
X86696595Y-90542952D01*
X86772785Y-90504857D01*
X86925166Y-90466761D01*
X87115642Y-90466761D01*
X87268023Y-90504857D01*
X87344214Y-90542952D01*
X87382309Y-90581047D01*
X87420404Y-90657238D01*
X87420404Y-90733428D01*
X87382309Y-90809619D01*
X87344214Y-90847714D01*
X87268023Y-90885809D01*
X87115642Y-90923904D01*
X86925166Y-90923904D01*
X86772785Y-90885809D01*
X86696595Y-90847714D01*
X86658500Y-90809619D01*
X86620404Y-90733428D01*
X134847619Y-86440476D02*
X134800000Y-86392857D01*
X134752380Y-86297619D01*
X134752380Y-86059523D01*
X134800000Y-85964285D01*
X134847619Y-85916666D01*
X134942857Y-85869047D01*
X135038095Y-85869047D01*
X135180952Y-85916666D01*
X135752380Y-86488095D01*
X135752380Y-85869047D01*
X135752380Y-85392857D02*
X135752380Y-85202380D01*
X135704761Y-85107142D01*
X135657142Y-85059523D01*
X135514285Y-84964285D01*
X135323809Y-84916666D01*
X134942857Y-84916666D01*
X134847619Y-84964285D01*
X134800000Y-85011904D01*
X134752380Y-85107142D01*
X134752380Y-85297619D01*
X134800000Y-85392857D01*
X134847619Y-85440476D01*
X134942857Y-85488095D01*
X135180952Y-85488095D01*
X135276190Y-85440476D01*
X135323809Y-85392857D01*
X135371428Y-85297619D01*
X135371428Y-85107142D01*
X135323809Y-85011904D01*
X135276190Y-84964285D01*
X135180952Y-84916666D01*
X135657142Y-84488095D02*
X135704761Y-84440476D01*
X135752380Y-84488095D01*
X135704761Y-84535714D01*
X135657142Y-84488095D01*
X135752380Y-84488095D01*
X134752380Y-83535714D02*
X134752380Y-84011904D01*
X135228571Y-84059523D01*
X135180952Y-84011904D01*
X135133333Y-83916666D01*
X135133333Y-83678571D01*
X135180952Y-83583333D01*
X135228571Y-83535714D01*
X135323809Y-83488095D01*
X135561904Y-83488095D01*
X135657142Y-83535714D01*
X135704761Y-83583333D01*
X135752380Y-83678571D01*
X135752380Y-83916666D01*
X135704761Y-84011904D01*
X135657142Y-84059523D01*
X135752380Y-82297619D02*
X135085714Y-82297619D01*
X135180952Y-82297619D02*
X135133333Y-82250000D01*
X135085714Y-82154761D01*
X135085714Y-82011904D01*
X135133333Y-81916666D01*
X135228571Y-81869047D01*
X135752380Y-81869047D01*
X135228571Y-81869047D02*
X135133333Y-81821428D01*
X135085714Y-81726190D01*
X135085714Y-81583333D01*
X135133333Y-81488095D01*
X135228571Y-81440476D01*
X135752380Y-81440476D01*
X135752380Y-80964285D02*
X135085714Y-80964285D01*
X135180952Y-80964285D02*
X135133333Y-80916666D01*
X135085714Y-80821428D01*
X135085714Y-80678571D01*
X135133333Y-80583333D01*
X135228571Y-80535714D01*
X135752380Y-80535714D01*
X135228571Y-80535714D02*
X135133333Y-80488095D01*
X135085714Y-80392857D01*
X135085714Y-80250000D01*
X135133333Y-80154761D01*
X135228571Y-80107142D01*
X135752380Y-80107142D01*
X134000000Y-102000000D02*
X134000000Y-72500000D01*
X132500000Y-102000000D02*
X134586421Y-102000000D01*
X132500000Y-72500000D02*
X134586421Y-72500000D01*
X134000000Y-72500000D02*
X134586421Y-73626504D01*
X134000000Y-72500000D02*
X133413579Y-73626504D01*
X134000000Y-102000000D02*
X134586421Y-100873496D01*
X134000000Y-102000000D02*
X133413579Y-100873496D01*
X112309523Y-104176619D02*
X112357142Y-104129000D01*
X112452380Y-104081380D01*
X112690476Y-104081380D01*
X112785714Y-104129000D01*
X112833333Y-104176619D01*
X112880952Y-104271857D01*
X112880952Y-104367095D01*
X112833333Y-104509952D01*
X112261904Y-105081380D01*
X112880952Y-105081380D01*
X113785714Y-104081380D02*
X113309523Y-104081380D01*
X113261904Y-104557571D01*
X113309523Y-104509952D01*
X113404761Y-104462333D01*
X113642857Y-104462333D01*
X113738095Y-104509952D01*
X113785714Y-104557571D01*
X113833333Y-104652809D01*
X113833333Y-104890904D01*
X113785714Y-104986142D01*
X113738095Y-105033761D01*
X113642857Y-105081380D01*
X113404761Y-105081380D01*
X113309523Y-105033761D01*
X113261904Y-104986142D01*
X114261904Y-104986142D02*
X114309523Y-105033761D01*
X114261904Y-105081380D01*
X114214285Y-105033761D01*
X114261904Y-104986142D01*
X114261904Y-105081380D01*
X114928571Y-104081380D02*
X115023809Y-104081380D01*
X115119047Y-104129000D01*
X115166666Y-104176619D01*
X115214285Y-104271857D01*
X115261904Y-104462333D01*
X115261904Y-104700428D01*
X115214285Y-104890904D01*
X115166666Y-104986142D01*
X115119047Y-105033761D01*
X115023809Y-105081380D01*
X114928571Y-105081380D01*
X114833333Y-105033761D01*
X114785714Y-104986142D01*
X114738095Y-104890904D01*
X114690476Y-104700428D01*
X114690476Y-104462333D01*
X114738095Y-104271857D01*
X114785714Y-104176619D01*
X114833333Y-104129000D01*
X114928571Y-104081380D01*
X116452380Y-105081380D02*
X116452380Y-104414714D01*
X116452380Y-104509952D02*
X116500000Y-104462333D01*
X116595238Y-104414714D01*
X116738095Y-104414714D01*
X116833333Y-104462333D01*
X116880952Y-104557571D01*
X116880952Y-105081380D01*
X116880952Y-104557571D02*
X116928571Y-104462333D01*
X117023809Y-104414714D01*
X117166666Y-104414714D01*
X117261904Y-104462333D01*
X117309523Y-104557571D01*
X117309523Y-105081380D01*
X117785714Y-105081380D02*
X117785714Y-104414714D01*
X117785714Y-104509952D02*
X117833333Y-104462333D01*
X117928571Y-104414714D01*
X118071428Y-104414714D01*
X118166666Y-104462333D01*
X118214285Y-104557571D01*
X118214285Y-105081380D01*
X118214285Y-104557571D02*
X118261904Y-104462333D01*
X118357142Y-104414714D01*
X118500000Y-104414714D01*
X118595238Y-104462333D01*
X118642857Y-104557571D01*
X118642857Y-105081380D01*
X132500000Y-103329000D02*
X107500000Y-103329000D01*
X132500000Y-102000000D02*
X132500000Y-103915421D01*
X107500000Y-102000000D02*
X107500000Y-103915421D01*
X107500000Y-103329000D02*
X108626504Y-102742579D01*
X107500000Y-103329000D02*
X108626504Y-103915421D01*
X132500000Y-103329000D02*
X131373496Y-102742579D01*
X132500000Y-103329000D02*
X131373496Y-103915421D01*
X108212000Y-86360000D02*
X109355000Y-86360000D01*
X131341714Y-92395280D02*
X131379809Y-92433376D01*
X131417904Y-92547661D01*
X131417904Y-92623852D01*
X131379809Y-92738138D01*
X131303619Y-92814328D01*
X131227428Y-92852423D01*
X131075047Y-92890519D01*
X130960761Y-92890519D01*
X130808380Y-92852423D01*
X130732190Y-92814328D01*
X130656000Y-92738138D01*
X130617904Y-92623852D01*
X130617904Y-92547661D01*
X130656000Y-92433376D01*
X130694095Y-92395280D01*
X130617904Y-92052423D02*
X131265523Y-92052423D01*
X131341714Y-92014328D01*
X131379809Y-91976233D01*
X131417904Y-91900042D01*
X131417904Y-91747661D01*
X131379809Y-91671471D01*
X131341714Y-91633376D01*
X131265523Y-91595280D01*
X130617904Y-91595280D01*
X131417904Y-91214328D02*
X130617904Y-91214328D01*
X130617904Y-90909566D01*
X130656000Y-90833376D01*
X130694095Y-90795280D01*
X130770285Y-90757185D01*
X130884571Y-90757185D01*
X130960761Y-90795280D01*
X130998857Y-90833376D01*
X131036952Y-90909566D01*
X131036952Y-91214328D01*
X131417904Y-90033376D02*
X131417904Y-90414328D01*
X130617904Y-90414328D01*
X130617904Y-89271471D02*
X130617904Y-88814328D01*
X131417904Y-89042900D02*
X130617904Y-89042900D01*
X131189333Y-88585757D02*
X131189333Y-88204804D01*
X131417904Y-88661947D02*
X130617904Y-88395280D01*
X131417904Y-88128614D01*
X130656000Y-87442900D02*
X130617904Y-87519090D01*
X130617904Y-87633376D01*
X130656000Y-87747661D01*
X130732190Y-87823852D01*
X130808380Y-87861947D01*
X130960761Y-87900042D01*
X131075047Y-87900042D01*
X131227428Y-87861947D01*
X131303619Y-87823852D01*
X131379809Y-87747661D01*
X131417904Y-87633376D01*
X131417904Y-87557185D01*
X131379809Y-87442900D01*
X131341714Y-87404804D01*
X131075047Y-87404804D01*
X131075047Y-87557185D01*
X131417904Y-86452423D02*
X130617904Y-86452423D01*
X130998857Y-86452423D02*
X130998857Y-85995280D01*
X131417904Y-85995280D02*
X130617904Y-85995280D01*
X130617904Y-85728614D02*
X130617904Y-85271471D01*
X131417904Y-85500042D02*
X130617904Y-85500042D01*
X130617904Y-84852423D02*
X130617904Y-84776233D01*
X130656000Y-84700042D01*
X130694095Y-84661947D01*
X130770285Y-84623852D01*
X130922666Y-84585757D01*
X131113142Y-84585757D01*
X131265523Y-84623852D01*
X131341714Y-84661947D01*
X131379809Y-84700042D01*
X131417904Y-84776233D01*
X131417904Y-84852423D01*
X131379809Y-84928614D01*
X131341714Y-84966709D01*
X131265523Y-85004804D01*
X131113142Y-85042900D01*
X130922666Y-85042900D01*
X130770285Y-85004804D01*
X130694095Y-84966709D01*
X130656000Y-84928614D01*
X130617904Y-84852423D01*
X130617904Y-84319090D02*
X130617904Y-83785757D01*
X131417904Y-84128614D01*
X130617904Y-82719090D02*
X130617904Y-82642900D01*
X130656000Y-82566709D01*
X130694095Y-82528614D01*
X130770285Y-82490519D01*
X130922666Y-82452423D01*
X131113142Y-82452423D01*
X131265523Y-82490519D01*
X131341714Y-82528614D01*
X131379809Y-82566709D01*
X131417904Y-82642900D01*
X131417904Y-82719090D01*
X131379809Y-82795280D01*
X131341714Y-82833376D01*
X131265523Y-82871471D01*
X131113142Y-82909566D01*
X130922666Y-82909566D01*
X130770285Y-82871471D01*
X130694095Y-82833376D01*
X130656000Y-82795280D01*
X130617904Y-82719090D01*
X130617904Y-82185757D02*
X130617904Y-81690519D01*
X130922666Y-81957185D01*
X130922666Y-81842900D01*
X130960761Y-81766709D01*
X130998857Y-81728614D01*
X131075047Y-81690519D01*
X131265523Y-81690519D01*
X131341714Y-81728614D01*
X131379809Y-81766709D01*
X131417904Y-81842900D01*
X131417904Y-82071471D01*
X131379809Y-82147661D01*
X131341714Y-82185757D01*
X130579809Y-80776233D02*
X131608380Y-81461947D01*
X130694095Y-80547661D02*
X130656000Y-80509566D01*
X130617904Y-80433376D01*
X130617904Y-80242900D01*
X130656000Y-80166709D01*
X130694095Y-80128614D01*
X130770285Y-80090519D01*
X130846476Y-80090519D01*
X130960761Y-80128614D01*
X131417904Y-80585757D01*
X131417904Y-80090519D01*
X131417904Y-79328614D02*
X131417904Y-79785757D01*
X131417904Y-79557185D02*
X130617904Y-79557185D01*
X130732190Y-79633376D01*
X130808380Y-79709566D01*
X130846476Y-79785757D01*
X120413976Y-101056904D02*
X120413976Y-100256904D01*
X120871119Y-101056904D01*
X120871119Y-100256904D01*
X121518738Y-100637857D02*
X121252071Y-100637857D01*
X121252071Y-101056904D02*
X121252071Y-100256904D01*
X121633023Y-100256904D01*
X122394928Y-100980714D02*
X122356833Y-101018809D01*
X122242547Y-101056904D01*
X122166357Y-101056904D01*
X122052071Y-101018809D01*
X121975880Y-100942619D01*
X121937785Y-100866428D01*
X121899690Y-100714047D01*
X121899690Y-100599761D01*
X121937785Y-100447380D01*
X121975880Y-100371190D01*
X122052071Y-100295000D01*
X122166357Y-100256904D01*
X122242547Y-100256904D01*
X122356833Y-100295000D01*
X122394928Y-100333095D01*
X123309214Y-101018809D02*
X123423500Y-101056904D01*
X123613976Y-101056904D01*
X123690166Y-101018809D01*
X123728261Y-100980714D01*
X123766357Y-100904523D01*
X123766357Y-100828333D01*
X123728261Y-100752142D01*
X123690166Y-100714047D01*
X123613976Y-100675952D01*
X123461595Y-100637857D01*
X123385404Y-100599761D01*
X123347309Y-100561666D01*
X123309214Y-100485476D01*
X123309214Y-100409285D01*
X123347309Y-100333095D01*
X123385404Y-100295000D01*
X123461595Y-100256904D01*
X123652071Y-100256904D01*
X123766357Y-100295000D01*
X124109214Y-100637857D02*
X124375880Y-100637857D01*
X124490166Y-101056904D02*
X124109214Y-101056904D01*
X124109214Y-100256904D01*
X124490166Y-100256904D01*
X124833023Y-101056904D02*
X124833023Y-100256904D01*
X125290166Y-101056904D01*
X125290166Y-100256904D01*
X125633023Y-101018809D02*
X125747309Y-101056904D01*
X125937785Y-101056904D01*
X126013976Y-101018809D01*
X126052071Y-100980714D01*
X126090166Y-100904523D01*
X126090166Y-100828333D01*
X126052071Y-100752142D01*
X126013976Y-100714047D01*
X125937785Y-100675952D01*
X125785404Y-100637857D01*
X125709214Y-100599761D01*
X125671119Y-100561666D01*
X125633023Y-100485476D01*
X125633023Y-100409285D01*
X125671119Y-100333095D01*
X125709214Y-100295000D01*
X125785404Y-100256904D01*
X125975880Y-100256904D01*
X126090166Y-100295000D01*
X126585404Y-100256904D02*
X126737785Y-100256904D01*
X126813976Y-100295000D01*
X126890166Y-100371190D01*
X126928261Y-100523571D01*
X126928261Y-100790238D01*
X126890166Y-100942619D01*
X126813976Y-101018809D01*
X126737785Y-101056904D01*
X126585404Y-101056904D01*
X126509214Y-101018809D01*
X126433023Y-100942619D01*
X126394928Y-100790238D01*
X126394928Y-100523571D01*
X126433023Y-100371190D01*
X126509214Y-100295000D01*
X126585404Y-100256904D01*
X127728261Y-101056904D02*
X127461595Y-100675952D01*
X127271119Y-101056904D02*
X127271119Y-100256904D01*
X127575880Y-100256904D01*
X127652071Y-100295000D01*
X127690166Y-100333095D01*
X127728261Y-100409285D01*
X127728261Y-100523571D01*
X127690166Y-100599761D01*
X127652071Y-100637857D01*
X127575880Y-100675952D01*
X127271119Y-100675952D01*
D11*
X107500000Y-102000000D02*
X107500000Y-72500000D01*
X132500000Y-102000000D02*
X107500000Y-102000000D01*
X132500000Y-72500000D02*
X132500000Y-102000000D01*
X107500000Y-72500000D02*
X132500000Y-72500000D01*
D12*
X92800000Y-84700000D02*
X92800000Y-82850000D01*
X94000000Y-84700000D02*
X94000000Y-82850000D01*
X94000000Y-82850000D02*
X92800000Y-82850000D01*
X125017442Y-84905680D02*
X122549270Y-86330680D01*
X125817442Y-86291320D02*
X125017442Y-84905680D01*
X123349270Y-87716320D02*
X125817442Y-86291320D01*
D10*
X126006000Y-83224000D02*
X126006000Y-78574000D01*
X116006000Y-84299000D02*
X116006000Y-78574000D01*
X126006000Y-83224000D02*
X125898500Y-83224000D01*
X126006000Y-78574000D02*
X125898500Y-78574000D01*
X116056000Y-78574000D02*
X116163500Y-78574000D01*
X121690800Y-94042000D02*
X122765800Y-94042000D01*
X121690800Y-90917000D02*
X118440800Y-90917000D01*
X121690800Y-94167000D02*
X118440800Y-94167000D01*
X121690800Y-90917000D02*
X121690800Y-91142000D01*
X118440800Y-90917000D02*
X118440800Y-91142000D01*
X118440800Y-94167000D02*
X118440800Y-93942000D01*
X121690800Y-94167000D02*
X121690800Y-94042000D01*
D12*
X101294500Y-101344500D02*
G75*
G02X101744500Y-100894500I450000J0D01*
G01*
X102344500Y-100894500D02*
G75*
G02X102794500Y-101344500I0J-450000D01*
G01*
X102797269Y-102744500D02*
G75*
G02X102344500Y-103197269I-452769J0D01*
G01*
X101744500Y-103197269D02*
G75*
G02X101294500Y-102794500I0J452769D01*
G01*
X102344500Y-103197269D02*
X101744500Y-103197269D01*
X102794500Y-101344500D02*
X102794500Y-102744500D01*
X101744500Y-100894500D02*
X102344500Y-100894500D01*
X101294500Y-102744500D02*
X101294500Y-101344500D01*
X100612000Y-68670000D02*
X100712000Y-68670000D01*
X104112000Y-68670000D02*
X104012000Y-68670000D01*
X104012000Y-73570000D02*
X104112000Y-73570000D01*
X100612000Y-73570000D02*
X100712000Y-73570000D01*
X100612000Y-68670000D02*
X100612000Y-73570000D01*
X104112000Y-73570000D02*
X104112000Y-68670000D01*
X102231500Y-84515000D02*
X100901500Y-84515000D01*
X102231500Y-83185000D02*
X102231500Y-84515000D01*
X102231500Y-81915000D02*
X99571500Y-81915000D01*
X99571500Y-81915000D02*
X99571500Y-79315000D01*
X102231500Y-81915000D02*
X102231500Y-79315000D01*
X102231500Y-79315000D02*
X99571500Y-79315000D01*
X93158000Y-71695000D02*
X94488000Y-71695000D01*
X93158000Y-73025000D02*
X93158000Y-71695000D01*
X95758000Y-71695000D02*
X98358000Y-71695000D01*
X95758000Y-74295000D02*
X95758000Y-71695000D01*
X93158000Y-74295000D02*
X95758000Y-74295000D01*
X98358000Y-71695000D02*
X98358000Y-81975000D01*
X93158000Y-74295000D02*
X93158000Y-81975000D01*
X93158000Y-81975000D02*
X98358000Y-81975000D01*
X126188700Y-92887800D02*
G75*
G03X126188700Y-92887800I-700000J0D01*
G01*
X126226800Y-90779600D02*
G75*
G03X126226800Y-90779600I-700000J0D01*
G01*
X115203200Y-90855800D02*
G75*
G03X115203200Y-90855800I-700000J0D01*
G01*
D13*
G36*
X116248726Y-100313571D02*
G01*
X116297453Y-100322867D01*
X116345471Y-100336848D01*
X116391964Y-100355334D01*
X116436112Y-100378148D01*
X116459319Y-100392622D01*
X116500523Y-100423604D01*
X116537810Y-100458869D01*
X116571011Y-100498045D01*
X116599956Y-100540762D01*
X116624479Y-100586648D01*
X116644409Y-100635332D01*
X116659579Y-100686443D01*
X116669820Y-100739609D01*
X116674963Y-100794458D01*
X116674840Y-100850620D01*
X116673929Y-100865341D01*
X116669259Y-100911707D01*
X116662277Y-100953768D01*
X116652618Y-100992868D01*
X116639919Y-101030353D01*
X116623813Y-101067568D01*
X116613610Y-101087953D01*
X116589992Y-101127618D01*
X116561654Y-101165785D01*
X116529672Y-101201206D01*
X116495124Y-101232635D01*
X116476026Y-101247329D01*
X116455035Y-101261168D01*
X116430148Y-101275493D01*
X116403266Y-101289346D01*
X116376292Y-101301766D01*
X116351130Y-101311793D01*
X116342035Y-101314908D01*
X116313178Y-101323435D01*
X116285755Y-101329712D01*
X116257820Y-101334060D01*
X116227423Y-101336798D01*
X116201588Y-101337997D01*
X116171945Y-101338308D01*
X116145038Y-101337051D01*
X116119765Y-101333947D01*
X116095022Y-101328718D01*
X116069705Y-101321088D01*
X116042712Y-101310778D01*
X116012937Y-101297511D01*
X115983447Y-101283112D01*
X115966866Y-101274789D01*
X115952201Y-101267460D01*
X115940251Y-101261522D01*
X115931815Y-101257371D01*
X115927691Y-101255404D01*
X115927417Y-101255299D01*
X115927296Y-101258208D01*
X115927180Y-101266626D01*
X115927073Y-101280084D01*
X115926974Y-101298113D01*
X115926887Y-101320246D01*
X115926812Y-101346014D01*
X115926751Y-101374949D01*
X115926706Y-101406584D01*
X115926679Y-101440448D01*
X115926670Y-101473435D01*
X115926670Y-101691576D01*
X115678647Y-101691576D01*
X115678647Y-100804070D01*
X115930703Y-100804070D01*
X115930987Y-100846744D01*
X115936396Y-100886967D01*
X115946718Y-100924452D01*
X115961741Y-100958911D01*
X115981253Y-100990058D01*
X116005041Y-101017605D01*
X116032895Y-101041264D01*
X116064600Y-101060749D01*
X116099947Y-101075771D01*
X116138722Y-101086045D01*
X116138835Y-101086066D01*
X116149620Y-101087159D01*
X116164657Y-101087382D01*
X116182302Y-101086842D01*
X116200912Y-101085642D01*
X116218842Y-101083890D01*
X116234448Y-101081689D01*
X116245877Y-101079207D01*
X116281946Y-101065802D01*
X116314599Y-101047541D01*
X116343650Y-101024597D01*
X116368913Y-100997142D01*
X116390202Y-100965350D01*
X116407331Y-100929392D01*
X116407393Y-100929235D01*
X116417795Y-100895576D01*
X116423970Y-100859080D01*
X116425933Y-100821118D01*
X116423700Y-100783061D01*
X116417286Y-100746283D01*
X116406705Y-100712154D01*
X116404922Y-100707736D01*
X116387503Y-100673159D01*
X116365932Y-100642719D01*
X116340552Y-100616620D01*
X116311706Y-100595059D01*
X116279739Y-100578239D01*
X116244993Y-100566360D01*
X116207811Y-100559622D01*
X116168538Y-100558226D01*
X116150848Y-100559340D01*
X116113849Y-100565626D01*
X116079119Y-100577239D01*
X116047041Y-100593836D01*
X116018002Y-100615071D01*
X115992388Y-100640600D01*
X115970585Y-100670077D01*
X115952978Y-100703160D01*
X115939952Y-100739502D01*
X115937163Y-100750282D01*
X115935060Y-100761590D01*
X115933065Y-100776615D01*
X115931450Y-100793100D01*
X115930703Y-100804070D01*
X115678647Y-100804070D01*
X115678647Y-100343882D01*
X115737428Y-100343882D01*
X115783490Y-100398252D01*
X115796617Y-100413767D01*
X115808578Y-100427943D01*
X115818788Y-100440084D01*
X115826662Y-100449494D01*
X115831618Y-100455477D01*
X115832971Y-100457166D01*
X115835264Y-100458884D01*
X115838672Y-100458189D01*
X115844186Y-100454554D01*
X115852800Y-100447449D01*
X115855383Y-100445217D01*
X115896850Y-100412110D01*
X115940248Y-100382957D01*
X115984833Y-100358140D01*
X116029864Y-100338042D01*
X116074598Y-100323047D01*
X116106476Y-100315575D01*
X116152419Y-100309746D01*
X116200109Y-100309138D01*
X116248726Y-100313571D01*
G37*
X116248726Y-100313571D02*
X116297453Y-100322867D01*
X116345471Y-100336848D01*
X116391964Y-100355334D01*
X116436112Y-100378148D01*
X116459319Y-100392622D01*
X116500523Y-100423604D01*
X116537810Y-100458869D01*
X116571011Y-100498045D01*
X116599956Y-100540762D01*
X116624479Y-100586648D01*
X116644409Y-100635332D01*
X116659579Y-100686443D01*
X116669820Y-100739609D01*
X116674963Y-100794458D01*
X116674840Y-100850620D01*
X116673929Y-100865341D01*
X116669259Y-100911707D01*
X116662277Y-100953768D01*
X116652618Y-100992868D01*
X116639919Y-101030353D01*
X116623813Y-101067568D01*
X116613610Y-101087953D01*
X116589992Y-101127618D01*
X116561654Y-101165785D01*
X116529672Y-101201206D01*
X116495124Y-101232635D01*
X116476026Y-101247329D01*
X116455035Y-101261168D01*
X116430148Y-101275493D01*
X116403266Y-101289346D01*
X116376292Y-101301766D01*
X116351130Y-101311793D01*
X116342035Y-101314908D01*
X116313178Y-101323435D01*
X116285755Y-101329712D01*
X116257820Y-101334060D01*
X116227423Y-101336798D01*
X116201588Y-101337997D01*
X116171945Y-101338308D01*
X116145038Y-101337051D01*
X116119765Y-101333947D01*
X116095022Y-101328718D01*
X116069705Y-101321088D01*
X116042712Y-101310778D01*
X116012937Y-101297511D01*
X115983447Y-101283112D01*
X115966866Y-101274789D01*
X115952201Y-101267460D01*
X115940251Y-101261522D01*
X115931815Y-101257371D01*
X115927691Y-101255404D01*
X115927417Y-101255299D01*
X115927296Y-101258208D01*
X115927180Y-101266626D01*
X115927073Y-101280084D01*
X115926974Y-101298113D01*
X115926887Y-101320246D01*
X115926812Y-101346014D01*
X115926751Y-101374949D01*
X115926706Y-101406584D01*
X115926679Y-101440448D01*
X115926670Y-101473435D01*
X115926670Y-101691576D01*
X115678647Y-101691576D01*
X115678647Y-100804070D01*
X115930703Y-100804070D01*
X115930987Y-100846744D01*
X115936396Y-100886967D01*
X115946718Y-100924452D01*
X115961741Y-100958911D01*
X115981253Y-100990058D01*
X116005041Y-101017605D01*
X116032895Y-101041264D01*
X116064600Y-101060749D01*
X116099947Y-101075771D01*
X116138722Y-101086045D01*
X116138835Y-101086066D01*
X116149620Y-101087159D01*
X116164657Y-101087382D01*
X116182302Y-101086842D01*
X116200912Y-101085642D01*
X116218842Y-101083890D01*
X116234448Y-101081689D01*
X116245877Y-101079207D01*
X116281946Y-101065802D01*
X116314599Y-101047541D01*
X116343650Y-101024597D01*
X116368913Y-100997142D01*
X116390202Y-100965350D01*
X116407331Y-100929392D01*
X116407393Y-100929235D01*
X116417795Y-100895576D01*
X116423970Y-100859080D01*
X116425933Y-100821118D01*
X116423700Y-100783061D01*
X116417286Y-100746283D01*
X116406705Y-100712154D01*
X116404922Y-100707736D01*
X116387503Y-100673159D01*
X116365932Y-100642719D01*
X116340552Y-100616620D01*
X116311706Y-100595059D01*
X116279739Y-100578239D01*
X116244993Y-100566360D01*
X116207811Y-100559622D01*
X116168538Y-100558226D01*
X116150848Y-100559340D01*
X116113849Y-100565626D01*
X116079119Y-100577239D01*
X116047041Y-100593836D01*
X116018002Y-100615071D01*
X115992388Y-100640600D01*
X115970585Y-100670077D01*
X115952978Y-100703160D01*
X115939952Y-100739502D01*
X115937163Y-100750282D01*
X115935060Y-100761590D01*
X115933065Y-100776615D01*
X115931450Y-100793100D01*
X115930703Y-100804070D01*
X115678647Y-100804070D01*
X115678647Y-100343882D01*
X115737428Y-100343882D01*
X115783490Y-100398252D01*
X115796617Y-100413767D01*
X115808578Y-100427943D01*
X115818788Y-100440084D01*
X115826662Y-100449494D01*
X115831618Y-100455477D01*
X115832971Y-100457166D01*
X115835264Y-100458884D01*
X115838672Y-100458189D01*
X115844186Y-100454554D01*
X115852800Y-100447449D01*
X115855383Y-100445217D01*
X115896850Y-100412110D01*
X115940248Y-100382957D01*
X115984833Y-100358140D01*
X116029864Y-100338042D01*
X116074598Y-100323047D01*
X116106476Y-100315575D01*
X116152419Y-100309746D01*
X116200109Y-100309138D01*
X116248726Y-100313571D01*
G36*
X117065188Y-101318047D02*
G01*
X116814176Y-101318047D01*
X116814176Y-99955412D01*
X117065188Y-99955412D01*
X117065188Y-101318047D01*
G37*
X117065188Y-101318047D02*
X116814176Y-101318047D01*
X116814176Y-99955412D01*
X117065188Y-99955412D01*
X117065188Y-101318047D01*
G36*
X114143291Y-99987787D02*
G01*
X114174456Y-99991049D01*
X114189990Y-99993705D01*
X114241011Y-100006595D01*
X114289293Y-100024354D01*
X114335788Y-100047380D01*
X114371614Y-100069378D01*
X114393415Y-100085356D01*
X114416444Y-100104782D01*
X114439391Y-100126362D01*
X114460944Y-100148804D01*
X114479789Y-100170816D01*
X114493565Y-100189511D01*
X114511164Y-100215928D01*
X114420440Y-100306689D01*
X114329715Y-100397450D01*
X114318413Y-100374402D01*
X114299082Y-100341433D01*
X114275398Y-100312164D01*
X114247833Y-100287076D01*
X114216863Y-100266649D01*
X114206945Y-100261485D01*
X114184181Y-100251260D01*
X114163426Y-100244279D01*
X114142172Y-100239887D01*
X114117915Y-100237427D01*
X114114183Y-100237202D01*
X114077833Y-100237900D01*
X114043083Y-100244260D01*
X114009574Y-100256380D01*
X113977132Y-100274235D01*
X113948786Y-100296034D01*
X113923912Y-100322121D01*
X113902684Y-100351798D01*
X113885280Y-100384370D01*
X113871873Y-100419139D01*
X113862641Y-100455407D01*
X113857758Y-100492478D01*
X113857400Y-100529653D01*
X113861743Y-100566237D01*
X113870962Y-100601531D01*
X113885234Y-100634838D01*
X113885957Y-100636203D01*
X113905532Y-100667846D01*
X113928069Y-100694624D01*
X113954251Y-100717198D01*
X113984762Y-100736228D01*
X113994776Y-100741304D01*
X114018780Y-100751990D01*
X114040399Y-100759315D01*
X114061801Y-100763790D01*
X114085154Y-100765927D01*
X114100859Y-100766298D01*
X114125620Y-100765704D01*
X114146945Y-100763368D01*
X114167230Y-100758867D01*
X114188867Y-100751777D01*
X114193925Y-100749875D01*
X114223022Y-100736069D01*
X114250848Y-100717795D01*
X114276295Y-100696028D01*
X114298255Y-100671746D01*
X114315620Y-100645926D01*
X114318960Y-100639648D01*
X114323079Y-100631688D01*
X114326098Y-100626218D01*
X114326946Y-100624917D01*
X114329350Y-100626524D01*
X114335392Y-100631898D01*
X114344546Y-100640516D01*
X114356286Y-100651857D01*
X114370088Y-100665400D01*
X114385425Y-100680622D01*
X114401772Y-100697001D01*
X114418605Y-100714016D01*
X114435397Y-100731145D01*
X114451623Y-100747866D01*
X114466759Y-100763657D01*
X114468994Y-100766010D01*
X114508017Y-100807137D01*
X114499774Y-100819032D01*
X114491247Y-100830061D01*
X114479337Y-100843739D01*
X114465217Y-100858845D01*
X114450062Y-100874160D01*
X114435045Y-100888465D01*
X114421339Y-100900542D01*
X114421218Y-100900643D01*
X114377335Y-100933460D01*
X114331137Y-100960771D01*
X114282693Y-100982550D01*
X114232075Y-100998771D01*
X114179351Y-101009407D01*
X114124593Y-101014432D01*
X114115800Y-101014711D01*
X114097135Y-101014944D01*
X114078606Y-101014809D01*
X114061891Y-101014344D01*
X114048668Y-101013584D01*
X114044082Y-101013130D01*
X113998547Y-101005651D01*
X113955870Y-100994482D01*
X113914063Y-100979021D01*
X113881223Y-100963817D01*
X113844780Y-100943962D01*
X113812101Y-100922462D01*
X113781306Y-100897959D01*
X113751235Y-100869811D01*
X113722567Y-100839150D01*
X113698284Y-100808553D01*
X113677090Y-100776225D01*
X113657689Y-100740370D01*
X113657418Y-100739823D01*
X113635737Y-100689978D01*
X113619928Y-100639856D01*
X113609889Y-100588976D01*
X113605519Y-100536858D01*
X113605941Y-100495859D01*
X113611605Y-100436639D01*
X113622650Y-100379890D01*
X113639027Y-100325720D01*
X113660689Y-100274236D01*
X113687588Y-100225545D01*
X113719676Y-100179754D01*
X113756905Y-100136971D01*
X113773563Y-100120400D01*
X113815074Y-100084753D01*
X113859398Y-100054363D01*
X113906436Y-100029282D01*
X113956090Y-100009561D01*
X114008259Y-99995254D01*
X114014200Y-99994002D01*
X114043068Y-99989565D01*
X114075563Y-99987048D01*
X114109649Y-99986454D01*
X114143291Y-99987787D01*
G37*
X114143291Y-99987787D02*
X114174456Y-99991049D01*
X114189990Y-99993705D01*
X114241011Y-100006595D01*
X114289293Y-100024354D01*
X114335788Y-100047380D01*
X114371614Y-100069378D01*
X114393415Y-100085356D01*
X114416444Y-100104782D01*
X114439391Y-100126362D01*
X114460944Y-100148804D01*
X114479789Y-100170816D01*
X114493565Y-100189511D01*
X114511164Y-100215928D01*
X114420440Y-100306689D01*
X114329715Y-100397450D01*
X114318413Y-100374402D01*
X114299082Y-100341433D01*
X114275398Y-100312164D01*
X114247833Y-100287076D01*
X114216863Y-100266649D01*
X114206945Y-100261485D01*
X114184181Y-100251260D01*
X114163426Y-100244279D01*
X114142172Y-100239887D01*
X114117915Y-100237427D01*
X114114183Y-100237202D01*
X114077833Y-100237900D01*
X114043083Y-100244260D01*
X114009574Y-100256380D01*
X113977132Y-100274235D01*
X113948786Y-100296034D01*
X113923912Y-100322121D01*
X113902684Y-100351798D01*
X113885280Y-100384370D01*
X113871873Y-100419139D01*
X113862641Y-100455407D01*
X113857758Y-100492478D01*
X113857400Y-100529653D01*
X113861743Y-100566237D01*
X113870962Y-100601531D01*
X113885234Y-100634838D01*
X113885957Y-100636203D01*
X113905532Y-100667846D01*
X113928069Y-100694624D01*
X113954251Y-100717198D01*
X113984762Y-100736228D01*
X113994776Y-100741304D01*
X114018780Y-100751990D01*
X114040399Y-100759315D01*
X114061801Y-100763790D01*
X114085154Y-100765927D01*
X114100859Y-100766298D01*
X114125620Y-100765704D01*
X114146945Y-100763368D01*
X114167230Y-100758867D01*
X114188867Y-100751777D01*
X114193925Y-100749875D01*
X114223022Y-100736069D01*
X114250848Y-100717795D01*
X114276295Y-100696028D01*
X114298255Y-100671746D01*
X114315620Y-100645926D01*
X114318960Y-100639648D01*
X114323079Y-100631688D01*
X114326098Y-100626218D01*
X114326946Y-100624917D01*
X114329350Y-100626524D01*
X114335392Y-100631898D01*
X114344546Y-100640516D01*
X114356286Y-100651857D01*
X114370088Y-100665400D01*
X114385425Y-100680622D01*
X114401772Y-100697001D01*
X114418605Y-100714016D01*
X114435397Y-100731145D01*
X114451623Y-100747866D01*
X114466759Y-100763657D01*
X114468994Y-100766010D01*
X114508017Y-100807137D01*
X114499774Y-100819032D01*
X114491247Y-100830061D01*
X114479337Y-100843739D01*
X114465217Y-100858845D01*
X114450062Y-100874160D01*
X114435045Y-100888465D01*
X114421339Y-100900542D01*
X114421218Y-100900643D01*
X114377335Y-100933460D01*
X114331137Y-100960771D01*
X114282693Y-100982550D01*
X114232075Y-100998771D01*
X114179351Y-101009407D01*
X114124593Y-101014432D01*
X114115800Y-101014711D01*
X114097135Y-101014944D01*
X114078606Y-101014809D01*
X114061891Y-101014344D01*
X114048668Y-101013584D01*
X114044082Y-101013130D01*
X113998547Y-101005651D01*
X113955870Y-100994482D01*
X113914063Y-100979021D01*
X113881223Y-100963817D01*
X113844780Y-100943962D01*
X113812101Y-100922462D01*
X113781306Y-100897959D01*
X113751235Y-100869811D01*
X113722567Y-100839150D01*
X113698284Y-100808553D01*
X113677090Y-100776225D01*
X113657689Y-100740370D01*
X113657418Y-100739823D01*
X113635737Y-100689978D01*
X113619928Y-100639856D01*
X113609889Y-100588976D01*
X113605519Y-100536858D01*
X113605941Y-100495859D01*
X113611605Y-100436639D01*
X113622650Y-100379890D01*
X113639027Y-100325720D01*
X113660689Y-100274236D01*
X113687588Y-100225545D01*
X113719676Y-100179754D01*
X113756905Y-100136971D01*
X113773563Y-100120400D01*
X113815074Y-100084753D01*
X113859398Y-100054363D01*
X113906436Y-100029282D01*
X113956090Y-100009561D01*
X114008259Y-99995254D01*
X114014200Y-99994002D01*
X114043068Y-99989565D01*
X114075563Y-99987048D01*
X114109649Y-99986454D01*
X114143291Y-99987787D01*
G36*
X114866544Y-100314747D02*
G01*
X114866698Y-100362870D01*
X114866843Y-100405396D01*
X114866987Y-100442701D01*
X114867140Y-100475165D01*
X114867311Y-100503166D01*
X114867509Y-100527082D01*
X114867743Y-100547292D01*
X114868022Y-100564173D01*
X114868356Y-100578104D01*
X114868752Y-100589463D01*
X114869221Y-100598629D01*
X114869772Y-100605980D01*
X114870413Y-100611894D01*
X114871153Y-100616750D01*
X114872002Y-100620926D01*
X114872969Y-100624800D01*
X114874063Y-100628750D01*
X114874083Y-100628822D01*
X114886165Y-100661517D01*
X114902919Y-100690718D01*
X114922623Y-100714542D01*
X114944689Y-100734318D01*
X114967619Y-100749045D01*
X114992509Y-100759196D01*
X115020456Y-100765243D01*
X115045141Y-100767418D01*
X115060730Y-100767966D01*
X115072223Y-100767877D01*
X115081486Y-100766947D01*
X115090383Y-100764972D01*
X115100780Y-100761747D01*
X115102720Y-100761097D01*
X115133675Y-100747623D01*
X115161350Y-100729162D01*
X115185755Y-100705707D01*
X115206897Y-100677248D01*
X115221803Y-100650176D01*
X115225131Y-100643261D01*
X115228080Y-100636937D01*
X115230671Y-100630816D01*
X115232929Y-100624510D01*
X115234876Y-100617631D01*
X115236535Y-100609791D01*
X115237929Y-100600603D01*
X115239082Y-100589677D01*
X115240015Y-100576626D01*
X115240753Y-100561063D01*
X115241318Y-100542598D01*
X115241733Y-100520845D01*
X115242021Y-100495415D01*
X115242205Y-100465920D01*
X115242309Y-100431972D01*
X115242355Y-100393184D01*
X115242365Y-100349166D01*
X115242364Y-100303346D01*
X115242364Y-100024141D01*
X115490388Y-100024141D01*
X115490388Y-100998306D01*
X115431004Y-100998306D01*
X115390140Y-100941439D01*
X115377014Y-100923263D01*
X115366857Y-100909470D01*
X115359223Y-100899540D01*
X115353663Y-100892953D01*
X115349729Y-100889189D01*
X115346973Y-100887727D01*
X115344947Y-100888050D01*
X115344438Y-100888398D01*
X115340002Y-100891994D01*
X115332359Y-100898274D01*
X115322894Y-100906097D01*
X115319227Y-100909139D01*
X115278853Y-100939376D01*
X115236160Y-100965148D01*
X115191928Y-100986082D01*
X115146937Y-101001807D01*
X115105126Y-101011423D01*
X115076873Y-101014704D01*
X115045312Y-101015690D01*
X115012669Y-101014352D01*
X114997329Y-101012882D01*
X114984365Y-101010965D01*
X114968236Y-101007965D01*
X114951539Y-101004386D01*
X114943541Y-101002474D01*
X114894685Y-100987357D01*
X114849079Y-100967322D01*
X114806941Y-100942602D01*
X114768491Y-100913429D01*
X114733946Y-100880037D01*
X114703527Y-100842657D01*
X114677450Y-100801523D01*
X114655936Y-100756867D01*
X114639202Y-100708923D01*
X114629355Y-100668106D01*
X114627509Y-100657928D01*
X114625868Y-100647047D01*
X114624420Y-100635078D01*
X114623153Y-100621634D01*
X114622056Y-100606330D01*
X114621119Y-100588780D01*
X114620328Y-100568598D01*
X114619672Y-100545399D01*
X114619141Y-100518797D01*
X114618722Y-100488407D01*
X114618404Y-100453842D01*
X114618176Y-100414717D01*
X114618026Y-100370646D01*
X114617942Y-100321244D01*
X114617917Y-100284864D01*
X114617823Y-100024141D01*
X114865623Y-100024141D01*
X114866544Y-100314747D01*
G37*
X114866544Y-100314747D02*
X114866698Y-100362870D01*
X114866843Y-100405396D01*
X114866987Y-100442701D01*
X114867140Y-100475165D01*
X114867311Y-100503166D01*
X114867509Y-100527082D01*
X114867743Y-100547292D01*
X114868022Y-100564173D01*
X114868356Y-100578104D01*
X114868752Y-100589463D01*
X114869221Y-100598629D01*
X114869772Y-100605980D01*
X114870413Y-100611894D01*
X114871153Y-100616750D01*
X114872002Y-100620926D01*
X114872969Y-100624800D01*
X114874063Y-100628750D01*
X114874083Y-100628822D01*
X114886165Y-100661517D01*
X114902919Y-100690718D01*
X114922623Y-100714542D01*
X114944689Y-100734318D01*
X114967619Y-100749045D01*
X114992509Y-100759196D01*
X115020456Y-100765243D01*
X115045141Y-100767418D01*
X115060730Y-100767966D01*
X115072223Y-100767877D01*
X115081486Y-100766947D01*
X115090383Y-100764972D01*
X115100780Y-100761747D01*
X115102720Y-100761097D01*
X115133675Y-100747623D01*
X115161350Y-100729162D01*
X115185755Y-100705707D01*
X115206897Y-100677248D01*
X115221803Y-100650176D01*
X115225131Y-100643261D01*
X115228080Y-100636937D01*
X115230671Y-100630816D01*
X115232929Y-100624510D01*
X115234876Y-100617631D01*
X115236535Y-100609791D01*
X115237929Y-100600603D01*
X115239082Y-100589677D01*
X115240015Y-100576626D01*
X115240753Y-100561063D01*
X115241318Y-100542598D01*
X115241733Y-100520845D01*
X115242021Y-100495415D01*
X115242205Y-100465920D01*
X115242309Y-100431972D01*
X115242355Y-100393184D01*
X115242365Y-100349166D01*
X115242364Y-100303346D01*
X115242364Y-100024141D01*
X115490388Y-100024141D01*
X115490388Y-100998306D01*
X115431004Y-100998306D01*
X115390140Y-100941439D01*
X115377014Y-100923263D01*
X115366857Y-100909470D01*
X115359223Y-100899540D01*
X115353663Y-100892953D01*
X115349729Y-100889189D01*
X115346973Y-100887727D01*
X115344947Y-100888050D01*
X115344438Y-100888398D01*
X115340002Y-100891994D01*
X115332359Y-100898274D01*
X115322894Y-100906097D01*
X115319227Y-100909139D01*
X115278853Y-100939376D01*
X115236160Y-100965148D01*
X115191928Y-100986082D01*
X115146937Y-101001807D01*
X115105126Y-101011423D01*
X115076873Y-101014704D01*
X115045312Y-101015690D01*
X115012669Y-101014352D01*
X114997329Y-101012882D01*
X114984365Y-101010965D01*
X114968236Y-101007965D01*
X114951539Y-101004386D01*
X114943541Y-101002474D01*
X114894685Y-100987357D01*
X114849079Y-100967322D01*
X114806941Y-100942602D01*
X114768491Y-100913429D01*
X114733946Y-100880037D01*
X114703527Y-100842657D01*
X114677450Y-100801523D01*
X114655936Y-100756867D01*
X114639202Y-100708923D01*
X114629355Y-100668106D01*
X114627509Y-100657928D01*
X114625868Y-100647047D01*
X114624420Y-100635078D01*
X114623153Y-100621634D01*
X114622056Y-100606330D01*
X114621119Y-100588780D01*
X114620328Y-100568598D01*
X114619672Y-100545399D01*
X114619141Y-100518797D01*
X114618722Y-100488407D01*
X114618404Y-100453842D01*
X114618176Y-100414717D01*
X114618026Y-100370646D01*
X114617942Y-100321244D01*
X114617917Y-100284864D01*
X114617823Y-100024141D01*
X114865623Y-100024141D01*
X114866544Y-100314747D01*
D10*
X119143600Y-87073000D02*
X121343600Y-87073000D01*
X118768600Y-90473000D02*
X121718600Y-90473000D01*
D12*
X115950000Y-86724000D02*
X114550000Y-86724000D01*
X114550000Y-89044000D02*
X116450000Y-89044000D01*
X114361500Y-82462779D02*
X114361500Y-82137221D01*
X115381500Y-82462779D02*
X115381500Y-82137221D01*
D10*
X113518904Y-85223333D02*
X113137952Y-85490000D01*
X113518904Y-85680476D02*
X112718904Y-85680476D01*
X112718904Y-85375714D01*
X112757000Y-85299523D01*
X112795095Y-85261428D01*
X112871285Y-85223333D01*
X112985571Y-85223333D01*
X113061761Y-85261428D01*
X113099857Y-85299523D01*
X113137952Y-85375714D01*
X113137952Y-85680476D01*
X112718904Y-84956666D02*
X112718904Y-84461428D01*
X113023666Y-84728095D01*
X113023666Y-84613809D01*
X113061761Y-84537619D01*
X113099857Y-84499523D01*
X113176047Y-84461428D01*
X113366523Y-84461428D01*
X113442714Y-84499523D01*
X113480809Y-84537619D01*
X113518904Y-84613809D01*
X113518904Y-84842380D01*
X113480809Y-84918571D01*
X113442714Y-84956666D01*
X92182904Y-84537476D02*
X91382904Y-84537476D01*
X91382904Y-84347000D01*
X91421000Y-84232714D01*
X91497190Y-84156523D01*
X91573380Y-84118428D01*
X91725761Y-84080333D01*
X91840047Y-84080333D01*
X91992428Y-84118428D01*
X92068619Y-84156523D01*
X92144809Y-84232714D01*
X92182904Y-84347000D01*
X92182904Y-84537476D01*
X92182904Y-83318428D02*
X92182904Y-83775571D01*
X92182904Y-83547000D02*
X91382904Y-83547000D01*
X91497190Y-83623190D01*
X91573380Y-83699380D01*
X91611476Y-83775571D01*
X125819047Y-85180952D02*
X125819047Y-85561904D01*
X125552380Y-84761904D02*
X125819047Y-85180952D01*
X126085714Y-84761904D01*
X126771428Y-85561904D02*
X126314285Y-85561904D01*
X126542857Y-85561904D02*
X126542857Y-84761904D01*
X126466666Y-84876190D01*
X126390476Y-84952380D01*
X126314285Y-84990476D01*
X114249276Y-78619404D02*
X114249276Y-79267023D01*
X114287371Y-79343214D01*
X114325466Y-79381309D01*
X114401657Y-79419404D01*
X114554038Y-79419404D01*
X114630228Y-79381309D01*
X114668323Y-79343214D01*
X114706419Y-79267023D01*
X114706419Y-78619404D01*
X115011180Y-78619404D02*
X115506419Y-78619404D01*
X115239752Y-78924166D01*
X115354038Y-78924166D01*
X115430228Y-78962261D01*
X115468323Y-79000357D01*
X115506419Y-79076547D01*
X115506419Y-79267023D01*
X115468323Y-79343214D01*
X115430228Y-79381309D01*
X115354038Y-79419404D01*
X115125466Y-79419404D01*
X115049276Y-79381309D01*
X115011180Y-79343214D01*
X116801976Y-94240404D02*
X116801976Y-94888023D01*
X116840071Y-94964214D01*
X116878166Y-95002309D01*
X116954357Y-95040404D01*
X117106738Y-95040404D01*
X117182928Y-95002309D01*
X117221023Y-94964214D01*
X117259119Y-94888023D01*
X117259119Y-94240404D01*
X117601976Y-94316595D02*
X117640071Y-94278500D01*
X117716261Y-94240404D01*
X117906738Y-94240404D01*
X117982928Y-94278500D01*
X118021023Y-94316595D01*
X118059119Y-94392785D01*
X118059119Y-94468976D01*
X118021023Y-94583261D01*
X117563880Y-95040404D01*
X118059119Y-95040404D01*
X103406404Y-103092119D02*
X103977833Y-103092119D01*
X104092119Y-103130214D01*
X104168309Y-103206404D01*
X104206404Y-103320690D01*
X104206404Y-103396880D01*
X104206404Y-102711166D02*
X103406404Y-102711166D01*
X103406404Y-102406404D01*
X103444500Y-102330214D01*
X103482595Y-102292119D01*
X103558785Y-102254023D01*
X103673071Y-102254023D01*
X103749261Y-102292119D01*
X103787357Y-102330214D01*
X103825452Y-102406404D01*
X103825452Y-102711166D01*
X103406404Y-101987357D02*
X103406404Y-101492119D01*
X103711166Y-101758785D01*
X103711166Y-101644500D01*
X103749261Y-101568309D01*
X103787357Y-101530214D01*
X103863547Y-101492119D01*
X104054023Y-101492119D01*
X104130214Y-101530214D01*
X104168309Y-101568309D01*
X104206404Y-101644500D01*
X104206404Y-101873071D01*
X104168309Y-101949261D01*
X104130214Y-101987357D01*
X104206404Y-100730214D02*
X104206404Y-101187357D01*
X104206404Y-100958785D02*
X103406404Y-100958785D01*
X103520690Y-101034976D01*
X103596880Y-101111166D01*
X103634976Y-101187357D01*
X104834380Y-70808809D02*
X104948666Y-70846904D01*
X105139142Y-70846904D01*
X105215333Y-70808809D01*
X105253428Y-70770714D01*
X105291523Y-70694523D01*
X105291523Y-70618333D01*
X105253428Y-70542142D01*
X105215333Y-70504047D01*
X105139142Y-70465952D01*
X104986761Y-70427857D01*
X104910571Y-70389761D01*
X104872476Y-70351666D01*
X104834380Y-70275476D01*
X104834380Y-70199285D01*
X104872476Y-70123095D01*
X104910571Y-70085000D01*
X104986761Y-70046904D01*
X105177238Y-70046904D01*
X105291523Y-70085000D01*
X105558190Y-70046904D02*
X105748666Y-70846904D01*
X105901047Y-70275476D01*
X106053428Y-70846904D01*
X106243904Y-70046904D01*
X106472476Y-70046904D02*
X106967714Y-70046904D01*
X106701047Y-70351666D01*
X106815333Y-70351666D01*
X106891523Y-70389761D01*
X106929619Y-70427857D01*
X106967714Y-70504047D01*
X106967714Y-70694523D01*
X106929619Y-70770714D01*
X106891523Y-70808809D01*
X106815333Y-70846904D01*
X106586761Y-70846904D01*
X106510571Y-70808809D01*
X106472476Y-70770714D01*
X107462952Y-70046904D02*
X107539142Y-70046904D01*
X107615333Y-70085000D01*
X107653428Y-70123095D01*
X107691523Y-70199285D01*
X107729619Y-70351666D01*
X107729619Y-70542142D01*
X107691523Y-70694523D01*
X107653428Y-70770714D01*
X107615333Y-70808809D01*
X107539142Y-70846904D01*
X107462952Y-70846904D01*
X107386761Y-70808809D01*
X107348666Y-70770714D01*
X107310571Y-70694523D01*
X107272476Y-70542142D01*
X107272476Y-70351666D01*
X107310571Y-70199285D01*
X107348666Y-70123095D01*
X107386761Y-70085000D01*
X107462952Y-70046904D01*
X88207857Y-94504857D02*
X88245952Y-94390571D01*
X88284047Y-94352476D01*
X88360238Y-94314380D01*
X88474523Y-94314380D01*
X88550714Y-94352476D01*
X88588809Y-94390571D01*
X88626904Y-94466761D01*
X88626904Y-94771523D01*
X87826904Y-94771523D01*
X87826904Y-94504857D01*
X87865000Y-94428666D01*
X87903095Y-94390571D01*
X87979285Y-94352476D01*
X88055476Y-94352476D01*
X88131666Y-94390571D01*
X88169761Y-94428666D01*
X88207857Y-94504857D01*
X88207857Y-94771523D01*
X87826904Y-94085809D02*
X87826904Y-93628666D01*
X88626904Y-93857238D02*
X87826904Y-93857238D01*
X87826904Y-93438190D02*
X87826904Y-92942952D01*
X88131666Y-93209619D01*
X88131666Y-93095333D01*
X88169761Y-93019142D01*
X88207857Y-92981047D01*
X88284047Y-92942952D01*
X88474523Y-92942952D01*
X88550714Y-92981047D01*
X88588809Y-93019142D01*
X88626904Y-93095333D01*
X88626904Y-93323904D01*
X88588809Y-93400095D01*
X88550714Y-93438190D01*
X87826904Y-92447714D02*
X87826904Y-92371523D01*
X87865000Y-92295333D01*
X87903095Y-92257238D01*
X87979285Y-92219142D01*
X88131666Y-92181047D01*
X88322142Y-92181047D01*
X88474523Y-92219142D01*
X88550714Y-92257238D01*
X88588809Y-92295333D01*
X88626904Y-92371523D01*
X88626904Y-92447714D01*
X88588809Y-92523904D01*
X88550714Y-92562000D01*
X88474523Y-92600095D01*
X88322142Y-92638190D01*
X88131666Y-92638190D01*
X87979285Y-92600095D01*
X87903095Y-92562000D01*
X87865000Y-92523904D01*
X87826904Y-92447714D01*
X103866904Y-79508285D02*
X103485952Y-79774952D01*
X103866904Y-79965428D02*
X103066904Y-79965428D01*
X103066904Y-79660666D01*
X103105000Y-79584476D01*
X103143095Y-79546380D01*
X103219285Y-79508285D01*
X103333571Y-79508285D01*
X103409761Y-79546380D01*
X103447857Y-79584476D01*
X103485952Y-79660666D01*
X103485952Y-79965428D01*
X103066904Y-79241619D02*
X103066904Y-78746380D01*
X103371666Y-79013047D01*
X103371666Y-78898761D01*
X103409761Y-78822571D01*
X103447857Y-78784476D01*
X103524047Y-78746380D01*
X103714523Y-78746380D01*
X103790714Y-78784476D01*
X103828809Y-78822571D01*
X103866904Y-78898761D01*
X103866904Y-79127333D01*
X103828809Y-79203523D01*
X103790714Y-79241619D01*
X103066904Y-78251142D02*
X103066904Y-78174952D01*
X103105000Y-78098761D01*
X103143095Y-78060666D01*
X103219285Y-78022571D01*
X103371666Y-77984476D01*
X103562142Y-77984476D01*
X103714523Y-78022571D01*
X103790714Y-78060666D01*
X103828809Y-78098761D01*
X103866904Y-78174952D01*
X103866904Y-78251142D01*
X103828809Y-78327333D01*
X103790714Y-78365428D01*
X103714523Y-78403523D01*
X103562142Y-78441619D01*
X103371666Y-78441619D01*
X103219285Y-78403523D01*
X103143095Y-78365428D01*
X103105000Y-78327333D01*
X103066904Y-78251142D01*
X103219380Y-82746904D02*
X103219380Y-83318333D01*
X103181285Y-83432619D01*
X103105095Y-83508809D01*
X102990809Y-83546904D01*
X102914619Y-83546904D01*
X103600333Y-83546904D02*
X103600333Y-82746904D01*
X103905095Y-82746904D01*
X103981285Y-82785000D01*
X104019380Y-82823095D01*
X104057476Y-82899285D01*
X104057476Y-83013571D01*
X104019380Y-83089761D01*
X103981285Y-83127857D01*
X103905095Y-83165952D01*
X103600333Y-83165952D01*
X104324142Y-82746904D02*
X104819380Y-82746904D01*
X104552714Y-83051666D01*
X104667000Y-83051666D01*
X104743190Y-83089761D01*
X104781285Y-83127857D01*
X104819380Y-83204047D01*
X104819380Y-83394523D01*
X104781285Y-83470714D01*
X104743190Y-83508809D01*
X104667000Y-83546904D01*
X104438428Y-83546904D01*
X104362238Y-83508809D01*
X104324142Y-83470714D01*
X105314619Y-82746904D02*
X105390809Y-82746904D01*
X105467000Y-82785000D01*
X105505095Y-82823095D01*
X105543190Y-82899285D01*
X105581285Y-83051666D01*
X105581285Y-83242142D01*
X105543190Y-83394523D01*
X105505095Y-83470714D01*
X105467000Y-83508809D01*
X105390809Y-83546904D01*
X105314619Y-83546904D01*
X105238428Y-83508809D01*
X105200333Y-83470714D01*
X105162238Y-83394523D01*
X105124142Y-83242142D01*
X105124142Y-83051666D01*
X105162238Y-82899285D01*
X105200333Y-82823095D01*
X105238428Y-82785000D01*
X105314619Y-82746904D01*
X96723280Y-82251604D02*
X96723280Y-82823033D01*
X96685185Y-82937319D01*
X96608995Y-83013509D01*
X96494709Y-83051604D01*
X96418519Y-83051604D01*
X97028042Y-82251604D02*
X97523280Y-82251604D01*
X97256614Y-82556366D01*
X97370900Y-82556366D01*
X97447090Y-82594461D01*
X97485185Y-82632557D01*
X97523280Y-82708747D01*
X97523280Y-82899223D01*
X97485185Y-82975414D01*
X97447090Y-83013509D01*
X97370900Y-83051604D01*
X97142328Y-83051604D01*
X97066138Y-83013509D01*
X97028042Y-82975414D01*
X98018519Y-82251604D02*
X98094709Y-82251604D01*
X98170900Y-82289700D01*
X98208995Y-82327795D01*
X98247090Y-82403985D01*
X98285185Y-82556366D01*
X98285185Y-82746842D01*
X98247090Y-82899223D01*
X98208995Y-82975414D01*
X98170900Y-83013509D01*
X98094709Y-83051604D01*
X98018519Y-83051604D01*
X97942328Y-83013509D01*
X97904233Y-82975414D01*
X97866138Y-82899223D01*
X97828042Y-82746842D01*
X97828042Y-82556366D01*
X97866138Y-82403985D01*
X97904233Y-82327795D01*
X97942328Y-82289700D01*
X98018519Y-82251604D01*
X122888314Y-96221514D02*
X122850219Y-96259609D01*
X122735933Y-96297704D01*
X122659742Y-96297704D01*
X122545457Y-96259609D01*
X122469266Y-96183419D01*
X122431171Y-96107228D01*
X122393076Y-95954847D01*
X122393076Y-95840561D01*
X122431171Y-95688180D01*
X122469266Y-95611990D01*
X122545457Y-95535800D01*
X122659742Y-95497704D01*
X122735933Y-95497704D01*
X122850219Y-95535800D01*
X122888314Y-95573895D01*
X123650219Y-96297704D02*
X123193076Y-96297704D01*
X123421647Y-96297704D02*
X123421647Y-95497704D01*
X123345457Y-95611990D01*
X123269266Y-95688180D01*
X123193076Y-95726276D01*
X124145457Y-95497704D02*
X124221647Y-95497704D01*
X124297838Y-95535800D01*
X124335933Y-95573895D01*
X124374028Y-95650085D01*
X124412123Y-95802466D01*
X124412123Y-95992942D01*
X124374028Y-96145323D01*
X124335933Y-96221514D01*
X124297838Y-96259609D01*
X124221647Y-96297704D01*
X124145457Y-96297704D01*
X124069266Y-96259609D01*
X124031171Y-96221514D01*
X123993076Y-96145323D01*
X123954980Y-95992942D01*
X123954980Y-95802466D01*
X123993076Y-95650085D01*
X124031171Y-95573895D01*
X124069266Y-95535800D01*
X124145457Y-95497704D01*
X127323809Y-94752380D02*
X127361904Y-94638095D01*
X127361904Y-94447619D01*
X127323809Y-94371428D01*
X127285714Y-94333333D01*
X127209523Y-94295238D01*
X127133333Y-94295238D01*
X127057142Y-94333333D01*
X127019047Y-94371428D01*
X126980952Y-94447619D01*
X126942857Y-94600000D01*
X126904761Y-94676190D01*
X126866666Y-94714285D01*
X126790476Y-94752380D01*
X126714285Y-94752380D01*
X126638095Y-94714285D01*
X126600000Y-94676190D01*
X126561904Y-94600000D01*
X126561904Y-94409523D01*
X126600000Y-94295238D01*
X127285714Y-93495238D02*
X127323809Y-93533333D01*
X127361904Y-93647619D01*
X127361904Y-93723809D01*
X127323809Y-93838095D01*
X127247619Y-93914285D01*
X127171428Y-93952380D01*
X127019047Y-93990476D01*
X126904761Y-93990476D01*
X126752380Y-93952380D01*
X126676190Y-93914285D01*
X126600000Y-93838095D01*
X126561904Y-93723809D01*
X126561904Y-93647619D01*
X126600000Y-93533333D01*
X126638095Y-93495238D01*
X127361904Y-92771428D02*
X127361904Y-93152380D01*
X126561904Y-93152380D01*
X127323809Y-92271428D02*
X127361904Y-92157142D01*
X127361904Y-91966666D01*
X127323809Y-91890476D01*
X127285714Y-91852380D01*
X127209523Y-91814285D01*
X127133333Y-91814285D01*
X127057142Y-91852380D01*
X127019047Y-91890476D01*
X126980952Y-91966666D01*
X126942857Y-92119047D01*
X126904761Y-92195238D01*
X126866666Y-92233333D01*
X126790476Y-92271428D01*
X126714285Y-92271428D01*
X126638095Y-92233333D01*
X126600000Y-92195238D01*
X126561904Y-92119047D01*
X126561904Y-91928571D01*
X126600000Y-91814285D01*
X127361904Y-91471428D02*
X126561904Y-91471428D01*
X126561904Y-91280952D01*
X126600000Y-91166666D01*
X126676190Y-91090476D01*
X126752380Y-91052380D01*
X126904761Y-91014285D01*
X127019047Y-91014285D01*
X127171428Y-91052380D01*
X127247619Y-91090476D01*
X127323809Y-91166666D01*
X127361904Y-91280952D01*
X127361904Y-91471428D01*
X127133333Y-90709523D02*
X127133333Y-90328571D01*
X127361904Y-90785714D02*
X126561904Y-90519047D01*
X127361904Y-90252380D01*
X113480804Y-91966914D02*
X112680804Y-91966914D01*
X113252233Y-91700247D01*
X112680804Y-91433580D01*
X113480804Y-91433580D01*
X113061757Y-91052628D02*
X113061757Y-90785961D01*
X113480804Y-90671676D02*
X113480804Y-91052628D01*
X112680804Y-91052628D01*
X112680804Y-90671676D01*
X113480804Y-90328819D02*
X112680804Y-90328819D01*
X113252233Y-90062152D01*
X112680804Y-89795485D01*
X113480804Y-89795485D01*
X122235166Y-89306333D02*
X122801833Y-89306333D01*
X122868500Y-89273000D01*
X122901833Y-89239666D01*
X122935166Y-89173000D01*
X122935166Y-89039666D01*
X122901833Y-88973000D01*
X122868500Y-88939666D01*
X122801833Y-88906333D01*
X122235166Y-88906333D01*
X122935166Y-88206333D02*
X122935166Y-88606333D01*
X122935166Y-88406333D02*
X122235166Y-88406333D01*
X122335166Y-88473000D01*
X122401833Y-88539666D01*
X122435166Y-88606333D01*
X114919933Y-89927866D02*
X114686600Y-89594533D01*
X114519933Y-89927866D02*
X114519933Y-89227866D01*
X114786600Y-89227866D01*
X114853266Y-89261200D01*
X114886600Y-89294533D01*
X114919933Y-89361200D01*
X114919933Y-89461200D01*
X114886600Y-89527866D01*
X114853266Y-89561200D01*
X114786600Y-89594533D01*
X114519933Y-89594533D01*
X115586600Y-89927866D02*
X115186600Y-89927866D01*
X115386600Y-89927866D02*
X115386600Y-89227866D01*
X115319933Y-89327866D01*
X115253266Y-89394533D01*
X115186600Y-89427866D01*
X112718904Y-88493523D02*
X113366523Y-88493523D01*
X113442714Y-88455428D01*
X113480809Y-88417333D01*
X113518904Y-88341142D01*
X113518904Y-88188761D01*
X113480809Y-88112571D01*
X113442714Y-88074476D01*
X113366523Y-88036380D01*
X112718904Y-88036380D01*
X112985571Y-87312571D02*
X113518904Y-87312571D01*
X112680809Y-87503047D02*
X113252238Y-87693523D01*
X113252238Y-87198285D01*
X123562126Y-90557304D02*
X123295460Y-90176352D01*
X123104983Y-90557304D02*
X123104983Y-89757304D01*
X123409745Y-89757304D01*
X123485936Y-89795400D01*
X123524031Y-89833495D01*
X123562126Y-89909685D01*
X123562126Y-90023971D01*
X123524031Y-90100161D01*
X123485936Y-90138257D01*
X123409745Y-90176352D01*
X123104983Y-90176352D01*
X123866888Y-89833495D02*
X123904983Y-89795400D01*
X123981174Y-89757304D01*
X124171650Y-89757304D01*
X124247840Y-89795400D01*
X124285936Y-89833495D01*
X124324031Y-89909685D01*
X124324031Y-89985876D01*
X124285936Y-90100161D01*
X123828793Y-90557304D01*
X124324031Y-90557304D01*
X122862866Y-95129314D02*
X122824771Y-95167409D01*
X122710485Y-95205504D01*
X122634295Y-95205504D01*
X122520009Y-95167409D01*
X122443819Y-95091219D01*
X122405723Y-95015028D01*
X122367628Y-94862647D01*
X122367628Y-94748361D01*
X122405723Y-94595980D01*
X122443819Y-94519790D01*
X122520009Y-94443600D01*
X122634295Y-94405504D01*
X122710485Y-94405504D01*
X122824771Y-94443600D01*
X122862866Y-94481695D01*
X123243819Y-95205504D02*
X123396200Y-95205504D01*
X123472390Y-95167409D01*
X123510485Y-95129314D01*
X123586676Y-95015028D01*
X123624771Y-94862647D01*
X123624771Y-94557885D01*
X123586676Y-94481695D01*
X123548580Y-94443600D01*
X123472390Y-94405504D01*
X123320009Y-94405504D01*
X123243819Y-94443600D01*
X123205723Y-94481695D01*
X123167628Y-94557885D01*
X123167628Y-94748361D01*
X123205723Y-94824552D01*
X123243819Y-94862647D01*
X123320009Y-94900742D01*
X123472390Y-94900742D01*
X123548580Y-94862647D01*
X123586676Y-94824552D01*
X123624771Y-94748361D01*
X100387214Y-76307904D02*
X100120547Y-75926952D01*
X99930071Y-76307904D02*
X99930071Y-75507904D01*
X100234833Y-75507904D01*
X100311023Y-75546000D01*
X100349119Y-75584095D01*
X100387214Y-75660285D01*
X100387214Y-75774571D01*
X100349119Y-75850761D01*
X100311023Y-75888857D01*
X100234833Y-75926952D01*
X99930071Y-75926952D01*
X100653880Y-75507904D02*
X101149119Y-75507904D01*
X100882452Y-75812666D01*
X100996738Y-75812666D01*
X101072928Y-75850761D01*
X101111023Y-75888857D01*
X101149119Y-75965047D01*
X101149119Y-76155523D01*
X101111023Y-76231714D01*
X101072928Y-76269809D01*
X100996738Y-76307904D01*
X100768166Y-76307904D01*
X100691976Y-76269809D01*
X100653880Y-76231714D01*
X101911023Y-76307904D02*
X101453880Y-76307904D01*
X101682452Y-76307904D02*
X101682452Y-75507904D01*
X101606261Y-75622190D01*
X101530071Y-75698380D01*
X101453880Y-75736476D01*
X113506214Y-82433333D02*
X113544309Y-82471428D01*
X113582404Y-82585714D01*
X113582404Y-82661904D01*
X113544309Y-82776190D01*
X113468119Y-82852380D01*
X113391928Y-82890476D01*
X113239547Y-82928571D01*
X113125261Y-82928571D01*
X112972880Y-82890476D01*
X112896690Y-82852380D01*
X112820500Y-82776190D01*
X112782404Y-82661904D01*
X112782404Y-82585714D01*
X112820500Y-82471428D01*
X112858595Y-82433333D01*
X112782404Y-82166666D02*
X112782404Y-81633333D01*
X113582404Y-81976190D01*
X114712714Y-92843333D02*
X114750809Y-92881428D01*
X114788904Y-92995714D01*
X114788904Y-93071904D01*
X114750809Y-93186190D01*
X114674619Y-93262380D01*
X114598428Y-93300476D01*
X114446047Y-93338571D01*
X114331761Y-93338571D01*
X114179380Y-93300476D01*
X114103190Y-93262380D01*
X114027000Y-93186190D01*
X113988904Y-93071904D01*
X113988904Y-92995714D01*
X114027000Y-92881428D01*
X114065095Y-92843333D01*
X113988904Y-92157619D02*
X113988904Y-92310000D01*
X114027000Y-92386190D01*
X114065095Y-92424285D01*
X114179380Y-92500476D01*
X114331761Y-92538571D01*
X114636523Y-92538571D01*
X114712714Y-92500476D01*
X114750809Y-92462380D01*
X114788904Y-92386190D01*
X114788904Y-92233809D01*
X114750809Y-92157619D01*
X114712714Y-92119523D01*
X114636523Y-92081428D01*
X114446047Y-92081428D01*
X114369857Y-92119523D01*
X114331761Y-92157619D01*
X114293666Y-92233809D01*
X114293666Y-92386190D01*
X114331761Y-92462380D01*
X114369857Y-92500476D01*
X114446047Y-92538571D01*
X127285714Y-86733334D02*
X127323809Y-86771429D01*
X127361904Y-86885715D01*
X127361904Y-86961905D01*
X127323809Y-87076191D01*
X127247619Y-87152381D01*
X127171428Y-87190477D01*
X127019047Y-87228572D01*
X126904761Y-87228572D01*
X126752380Y-87190477D01*
X126676190Y-87152381D01*
X126600000Y-87076191D01*
X126561904Y-86961905D01*
X126561904Y-86885715D01*
X126600000Y-86771429D01*
X126638095Y-86733334D01*
X126828571Y-86047620D02*
X127361904Y-86047620D01*
X126523809Y-86238096D02*
X127095238Y-86428572D01*
X127095238Y-85933334D01*
X127285714Y-88833333D02*
X127323809Y-88871428D01*
X127361904Y-88985714D01*
X127361904Y-89061904D01*
X127323809Y-89176190D01*
X127247619Y-89252380D01*
X127171428Y-89290476D01*
X127019047Y-89328571D01*
X126904761Y-89328571D01*
X126752380Y-89290476D01*
X126676190Y-89252380D01*
X126600000Y-89176190D01*
X126561904Y-89061904D01*
X126561904Y-88985714D01*
X126600000Y-88871428D01*
X126638095Y-88833333D01*
X126561904Y-88566666D02*
X126561904Y-88071428D01*
X126866666Y-88338095D01*
X126866666Y-88223809D01*
X126904761Y-88147619D01*
X126942857Y-88109523D01*
X127019047Y-88071428D01*
X127209523Y-88071428D01*
X127285714Y-88109523D01*
X127323809Y-88147619D01*
X127361904Y-88223809D01*
X127361904Y-88452380D01*
X127323809Y-88528571D01*
X127285714Y-88566666D01*
X122421666Y-85566214D02*
X122383571Y-85604309D01*
X122269285Y-85642404D01*
X122193095Y-85642404D01*
X122078809Y-85604309D01*
X122002619Y-85528119D01*
X121964523Y-85451928D01*
X121926428Y-85299547D01*
X121926428Y-85185261D01*
X121964523Y-85032880D01*
X122002619Y-84956690D01*
X122078809Y-84880500D01*
X122193095Y-84842404D01*
X122269285Y-84842404D01*
X122383571Y-84880500D01*
X122421666Y-84918595D01*
X122726428Y-84918595D02*
X122764523Y-84880500D01*
X122840714Y-84842404D01*
X123031190Y-84842404D01*
X123107380Y-84880500D01*
X123145476Y-84918595D01*
X123183571Y-84994785D01*
X123183571Y-85070976D01*
X123145476Y-85185261D01*
X122688333Y-85642404D01*
X123183571Y-85642404D01*
X118167166Y-85365554D02*
X118129071Y-85403649D01*
X118014785Y-85441744D01*
X117938595Y-85441744D01*
X117824309Y-85403649D01*
X117748119Y-85327459D01*
X117710023Y-85251268D01*
X117671928Y-85098887D01*
X117671928Y-84984601D01*
X117710023Y-84832220D01*
X117748119Y-84756030D01*
X117824309Y-84679840D01*
X117938595Y-84641744D01*
X118014785Y-84641744D01*
X118129071Y-84679840D01*
X118167166Y-84717935D01*
X118929071Y-85441744D02*
X118471928Y-85441744D01*
X118700500Y-85441744D02*
X118700500Y-84641744D01*
X118624309Y-84756030D01*
X118548119Y-84832220D01*
X118471928Y-84870316D01*
M02*
