%TF.GenerationSoftware,KiCad,Pcbnew,(5.1.5)-3*%
%TF.CreationDate,2021-08-29T15:34:29+01:00*%
%TF.ProjectId,HT07,48543037-2e6b-4696-9361-645f70636258,rev?*%
%TF.SameCoordinates,Original*%
%TF.FileFunction,Soldermask,Bot*%
%TF.FilePolarity,Negative*%
%FSLAX46Y46*%
G04 Gerber Fmt 4.6, Leading zero omitted, Abs format (unit mm)*
G04 Created by KiCad (PCBNEW (5.1.5)-3) date 2021-08-29 15:34:29*
%MOMM*%
%LPD*%
G04 APERTURE LIST*
%ADD10C,2.200000*%
%ADD11O,1.700000X1.700000*%
%ADD12R,1.700000X1.700000*%
%ADD13C,1.140000*%
%ADD14C,1.400000*%
%ADD15C,1.000000*%
%ADD16C,0.800000*%
%ADD17C,0.700000*%
G04 APERTURE END LIST*
D10*
X124750188Y-106216393D03*
X95750188Y-106216393D03*
X95750188Y-68216393D03*
X124750188Y-68216393D03*
D11*
X100901500Y-80645000D03*
D12*
X100901500Y-83185000D03*
D11*
X97028000Y-80645000D03*
X94488000Y-80645000D03*
X97028000Y-78105000D03*
X94488000Y-78105000D03*
X97028000Y-75565000D03*
X94488000Y-75565000D03*
X97028000Y-73025000D03*
D12*
X94488000Y-73025000D03*
D13*
X96758000Y-97122000D03*
D14*
X96758000Y-89602000D03*
D15*
X114503200Y-90855800D03*
X125488700Y-92887800D03*
X125526800Y-90779600D03*
D16*
X118176500Y-100725000D03*
X118163800Y-95968200D03*
X121630090Y-95968200D03*
D17*
X123952000Y-87757000D03*
X124714000Y-87249000D03*
X102006400Y-99669600D03*
X100266500Y-73723500D03*
X115316000Y-86423500D03*
X121539000Y-82359500D03*
X116200000Y-82100000D03*
X115658900Y-84010500D03*
X115341400Y-93192600D03*
X123698000Y-93167200D03*
X120169940Y-86934040D03*
X115250000Y-87884000D03*
X117551200Y-86888320D03*
X119608600Y-91186000D03*
X118214140Y-86268560D03*
X120954800Y-92227400D03*
X117602000Y-90233500D03*
X116878100Y-86121240D03*
X119710200Y-79375000D03*
X121539000Y-79375000D03*
X101498400Y-85725000D03*
X120523000Y-85344000D03*
X114274600Y-85725000D03*
X105841800Y-81915000D03*
X120523000Y-81788000D03*
X104711500Y-80645000D03*
X118541800Y-80264000D03*
X119557800Y-82626200D03*
M02*
