M48
; DRILL file {KiCad (5.1.5)-3} date 29/08/2021 15:34:47
; FORMAT={-:-/ absolute / metric / decimal}
; #@! TF.CreationDate,2021-08-29T15:34:47+01:00
; #@! TF.GenerationSoftware,Kicad,Pcbnew,(5.1.5)-3
; #@! TF.FileFunction,Plated,1,2,PTH
FMAT,2
METRIC
T1C0.400
T2C0.500
T3C1.000
%
G90
G05
T1
X100.266Y-73.724
X101.498Y-85.725
X102.006Y-99.67
X104.712Y-80.645
X105.842Y-81.915
X114.275Y-85.725
X115.25Y-87.884
X115.316Y-86.423
X115.341Y-93.193
X115.659Y-84.01
X116.2Y-82.1
X116.878Y-86.121
X117.551Y-86.888
X117.602Y-90.233
X118.214Y-86.269
X118.542Y-80.264
X119.558Y-82.626
X119.609Y-91.186
X119.71Y-79.375
X120.17Y-86.934
X120.523Y-81.788
X120.523Y-85.344
X120.955Y-92.227
X121.539Y-79.375
X121.539Y-82.359
X123.698Y-93.167
X123.952Y-87.757
X124.714Y-87.249
X118.164Y-95.968
X118.176Y-100.725
X121.63Y-95.968
T2
X125.527Y-90.78
X125.489Y-92.888
X114.503Y-90.856
T3
X100.901Y-80.645
X100.901Y-83.185
X94.488Y-73.025
X94.488Y-75.565
X94.488Y-78.105
X94.488Y-80.645
X97.028Y-73.025
X97.028Y-75.565
X97.028Y-78.105
X97.028Y-80.645
T0
M30
