%TF.GenerationSoftware,KiCad,Pcbnew,(5.1.5)-3*%
%TF.CreationDate,2021-08-29T15:34:29+01:00*%
%TF.ProjectId,HT07,48543037-2e6b-4696-9361-645f70636258,rev?*%
%TF.SameCoordinates,Original*%
%TF.FileFunction,Soldermask,Top*%
%TF.FilePolarity,Negative*%
%FSLAX46Y46*%
G04 Gerber Fmt 4.6, Leading zero omitted, Abs format (unit mm)*
G04 Created by KiCad (PCBNEW (5.1.5)-3) date 2021-08-29 15:34:29*
%MOMM*%
%LPD*%
G04 APERTURE LIST*
%ADD10C,0.100000*%
%ADD11R,0.600000X0.400000*%
%ADD12R,1.500000X2.400000*%
%ADD13C,2.200000*%
%ADD14O,1.700000X1.700000*%
%ADD15R,1.700000X1.700000*%
%ADD16R,1.000000X1.450000*%
%ADD17R,0.700000X0.600000*%
%ADD18C,1.140000*%
%ADD19C,1.400000*%
%ADD20R,0.650000X0.400000*%
%ADD21C,1.000000*%
%ADD22R,1.100000X0.400000*%
%ADD23C,0.800000*%
%ADD24R,0.285000X1.100000*%
%ADD25C,0.700000*%
G04 APERTURE END LIST*
D10*
G36*
X101544500Y-101204500D02*
G01*
X101544500Y-102884500D01*
X102544500Y-102884500D01*
X102544500Y-101204500D01*
X101544500Y-101204500D01*
G37*
D11*
X118843600Y-89773000D03*
X118843600Y-88773000D03*
X118843600Y-87773000D03*
X121643600Y-87773000D03*
X121643600Y-88773000D03*
X121643600Y-89773000D03*
D12*
X120243600Y-88773000D03*
D13*
X124750188Y-106216393D03*
X95750188Y-106216393D03*
X95750188Y-68216393D03*
X124750188Y-68216393D03*
D10*
G36*
X102375378Y-101205403D02*
G01*
X102393579Y-101208103D01*
X102411428Y-101212574D01*
X102428753Y-101218773D01*
X102445387Y-101226640D01*
X102461169Y-101236099D01*
X102475949Y-101247061D01*
X102489583Y-101259417D01*
X102501939Y-101273051D01*
X102512901Y-101287831D01*
X102522360Y-101303613D01*
X102530227Y-101320247D01*
X102536426Y-101337572D01*
X102540897Y-101355421D01*
X102543597Y-101373622D01*
X102544500Y-101392000D01*
X102544500Y-101767000D01*
X102543597Y-101785378D01*
X102540897Y-101803579D01*
X102536426Y-101821428D01*
X102530227Y-101838753D01*
X102522360Y-101855387D01*
X102512901Y-101871169D01*
X102501939Y-101885949D01*
X102489583Y-101899583D01*
X102475949Y-101911939D01*
X102461169Y-101922901D01*
X102445387Y-101932360D01*
X102428753Y-101940227D01*
X102411428Y-101946426D01*
X102393579Y-101950897D01*
X102375378Y-101953597D01*
X102357000Y-101954500D01*
X101732000Y-101954500D01*
X101713622Y-101953597D01*
X101695421Y-101950897D01*
X101677572Y-101946426D01*
X101660247Y-101940227D01*
X101643613Y-101932360D01*
X101627831Y-101922901D01*
X101613051Y-101911939D01*
X101599417Y-101899583D01*
X101587061Y-101885949D01*
X101576099Y-101871169D01*
X101566640Y-101855387D01*
X101558773Y-101838753D01*
X101552574Y-101821428D01*
X101548103Y-101803579D01*
X101545403Y-101785378D01*
X101544500Y-101767000D01*
X101544500Y-101392000D01*
X101545403Y-101373622D01*
X101548103Y-101355421D01*
X101552574Y-101337572D01*
X101558773Y-101320247D01*
X101566640Y-101303613D01*
X101576099Y-101287831D01*
X101587061Y-101273051D01*
X101599417Y-101259417D01*
X101613051Y-101247061D01*
X101627831Y-101236099D01*
X101643613Y-101226640D01*
X101660247Y-101218773D01*
X101677572Y-101212574D01*
X101695421Y-101208103D01*
X101713622Y-101205403D01*
X101732000Y-101204500D01*
X102357000Y-101204500D01*
X102375378Y-101205403D01*
G37*
G36*
X102375378Y-102135403D02*
G01*
X102393579Y-102138103D01*
X102411428Y-102142574D01*
X102428753Y-102148773D01*
X102445387Y-102156640D01*
X102461169Y-102166099D01*
X102475949Y-102177061D01*
X102489583Y-102189417D01*
X102501939Y-102203051D01*
X102512901Y-102217831D01*
X102522360Y-102233613D01*
X102530227Y-102250247D01*
X102536426Y-102267572D01*
X102540897Y-102285421D01*
X102543597Y-102303622D01*
X102544500Y-102322000D01*
X102544500Y-102697000D01*
X102543597Y-102715378D01*
X102540897Y-102733579D01*
X102536426Y-102751428D01*
X102530227Y-102768753D01*
X102522360Y-102785387D01*
X102512901Y-102801169D01*
X102501939Y-102815949D01*
X102489583Y-102829583D01*
X102475949Y-102841939D01*
X102461169Y-102852901D01*
X102445387Y-102862360D01*
X102428753Y-102870227D01*
X102411428Y-102876426D01*
X102393579Y-102880897D01*
X102375378Y-102883597D01*
X102357000Y-102884500D01*
X101732000Y-102884500D01*
X101713622Y-102883597D01*
X101695421Y-102880897D01*
X101677572Y-102876426D01*
X101660247Y-102870227D01*
X101643613Y-102862360D01*
X101627831Y-102852901D01*
X101613051Y-102841939D01*
X101599417Y-102829583D01*
X101587061Y-102815949D01*
X101576099Y-102801169D01*
X101566640Y-102785387D01*
X101558773Y-102768753D01*
X101552574Y-102751428D01*
X101548103Y-102733579D01*
X101545403Y-102715378D01*
X101544500Y-102697000D01*
X101544500Y-102322000D01*
X101545403Y-102303622D01*
X101548103Y-102285421D01*
X101552574Y-102267572D01*
X101558773Y-102250247D01*
X101566640Y-102233613D01*
X101576099Y-102217831D01*
X101587061Y-102203051D01*
X101599417Y-102189417D01*
X101613051Y-102177061D01*
X101627831Y-102166099D01*
X101643613Y-102156640D01*
X101660247Y-102148773D01*
X101677572Y-102142574D01*
X101695421Y-102138103D01*
X101713622Y-102135403D01*
X101732000Y-102134500D01*
X102357000Y-102134500D01*
X102375378Y-102135403D01*
G37*
D14*
X100901500Y-80645000D03*
D15*
X100901500Y-83185000D03*
D14*
X97028000Y-80645000D03*
X94488000Y-80645000D03*
X97028000Y-78105000D03*
X94488000Y-78105000D03*
X97028000Y-75565000D03*
X94488000Y-75565000D03*
X97028000Y-73025000D03*
D15*
X94488000Y-73025000D03*
D16*
X101512000Y-68545000D03*
X101512000Y-73695000D03*
X103212000Y-73695000D03*
X103212000Y-68545000D03*
D17*
X93400000Y-83300000D03*
X93400000Y-84700000D03*
D10*
G36*
X97471711Y-83765130D02*
G01*
X97534809Y-83774490D01*
X97596685Y-83789989D01*
X97656744Y-83811478D01*
X97714408Y-83838751D01*
X97769121Y-83871545D01*
X97820356Y-83909543D01*
X97867619Y-83952381D01*
X97910457Y-83999644D01*
X97948455Y-84050879D01*
X97981249Y-84105592D01*
X98008522Y-84163256D01*
X98030011Y-84223315D01*
X98045510Y-84285191D01*
X98054870Y-84348289D01*
X98058000Y-84412000D01*
X98058000Y-86912000D01*
X98054870Y-86975711D01*
X98045510Y-87038809D01*
X98030011Y-87100685D01*
X98008522Y-87160744D01*
X97981249Y-87218408D01*
X97948455Y-87273121D01*
X97910457Y-87324356D01*
X97867619Y-87371619D01*
X97820356Y-87414457D01*
X97769121Y-87452455D01*
X97714408Y-87485249D01*
X97656744Y-87512522D01*
X97596685Y-87534011D01*
X97534809Y-87549510D01*
X97471711Y-87558870D01*
X97408000Y-87562000D01*
X96108000Y-87562000D01*
X96044289Y-87558870D01*
X95981191Y-87549510D01*
X95919315Y-87534011D01*
X95859256Y-87512522D01*
X95801592Y-87485249D01*
X95746879Y-87452455D01*
X95695644Y-87414457D01*
X95648381Y-87371619D01*
X95605543Y-87324356D01*
X95567545Y-87273121D01*
X95534751Y-87218408D01*
X95507478Y-87160744D01*
X95485989Y-87100685D01*
X95470490Y-87038809D01*
X95461130Y-86975711D01*
X95458000Y-86912000D01*
X95458000Y-84412000D01*
X95461130Y-84348289D01*
X95470490Y-84285191D01*
X95485989Y-84223315D01*
X95507478Y-84163256D01*
X95534751Y-84105592D01*
X95567545Y-84050879D01*
X95605543Y-83999644D01*
X95648381Y-83952381D01*
X95695644Y-83909543D01*
X95746879Y-83871545D01*
X95801592Y-83838751D01*
X95859256Y-83811478D01*
X95919315Y-83789989D01*
X95981191Y-83774490D01*
X96044289Y-83765130D01*
X96108000Y-83762000D01*
X97408000Y-83762000D01*
X97471711Y-83765130D01*
G37*
G36*
X97471711Y-99385130D02*
G01*
X97534809Y-99394490D01*
X97596685Y-99409989D01*
X97656744Y-99431478D01*
X97714408Y-99458751D01*
X97769121Y-99491545D01*
X97820356Y-99529543D01*
X97867619Y-99572381D01*
X97910457Y-99619644D01*
X97948455Y-99670879D01*
X97981249Y-99725592D01*
X98008522Y-99783256D01*
X98030011Y-99843315D01*
X98045510Y-99905191D01*
X98054870Y-99968289D01*
X98058000Y-100032000D01*
X98058000Y-102532000D01*
X98054870Y-102595711D01*
X98045510Y-102658809D01*
X98030011Y-102720685D01*
X98008522Y-102780744D01*
X97981249Y-102838408D01*
X97948455Y-102893121D01*
X97910457Y-102944356D01*
X97867619Y-102991619D01*
X97820356Y-103034457D01*
X97769121Y-103072455D01*
X97714408Y-103105249D01*
X97656744Y-103132522D01*
X97596685Y-103154011D01*
X97534809Y-103169510D01*
X97471711Y-103178870D01*
X97408000Y-103182000D01*
X96108000Y-103182000D01*
X96044289Y-103178870D01*
X95981191Y-103169510D01*
X95919315Y-103154011D01*
X95859256Y-103132522D01*
X95801592Y-103105249D01*
X95746879Y-103072455D01*
X95695644Y-103034457D01*
X95648381Y-102991619D01*
X95605543Y-102944356D01*
X95567545Y-102893121D01*
X95534751Y-102838408D01*
X95507478Y-102780744D01*
X95485989Y-102720685D01*
X95470490Y-102658809D01*
X95461130Y-102595711D01*
X95458000Y-102532000D01*
X95458000Y-100032000D01*
X95461130Y-99968289D01*
X95470490Y-99905191D01*
X95485989Y-99843315D01*
X95507478Y-99783256D01*
X95534751Y-99725592D01*
X95567545Y-99670879D01*
X95605543Y-99619644D01*
X95648381Y-99572381D01*
X95695644Y-99529543D01*
X95746879Y-99491545D01*
X95801592Y-99458751D01*
X95859256Y-99431478D01*
X95919315Y-99409989D01*
X95981191Y-99394490D01*
X96044289Y-99385130D01*
X96108000Y-99382000D01*
X97408000Y-99382000D01*
X97471711Y-99385130D01*
G37*
D18*
X96758000Y-97122000D03*
D19*
X96758000Y-89602000D03*
D10*
G36*
X115149191Y-82651053D02*
G01*
X115170426Y-82654203D01*
X115191250Y-82659419D01*
X115211462Y-82666651D01*
X115230868Y-82675830D01*
X115249281Y-82686866D01*
X115266524Y-82699654D01*
X115282430Y-82714070D01*
X115296846Y-82729976D01*
X115309634Y-82747219D01*
X115320670Y-82765632D01*
X115329849Y-82785038D01*
X115337081Y-82805250D01*
X115342297Y-82826074D01*
X115345447Y-82847309D01*
X115346500Y-82868750D01*
X115346500Y-83306250D01*
X115345447Y-83327691D01*
X115342297Y-83348926D01*
X115337081Y-83369750D01*
X115329849Y-83389962D01*
X115320670Y-83409368D01*
X115309634Y-83427781D01*
X115296846Y-83445024D01*
X115282430Y-83460930D01*
X115266524Y-83475346D01*
X115249281Y-83488134D01*
X115230868Y-83499170D01*
X115211462Y-83508349D01*
X115191250Y-83515581D01*
X115170426Y-83520797D01*
X115149191Y-83523947D01*
X115127750Y-83525000D01*
X114615250Y-83525000D01*
X114593809Y-83523947D01*
X114572574Y-83520797D01*
X114551750Y-83515581D01*
X114531538Y-83508349D01*
X114512132Y-83499170D01*
X114493719Y-83488134D01*
X114476476Y-83475346D01*
X114460570Y-83460930D01*
X114446154Y-83445024D01*
X114433366Y-83427781D01*
X114422330Y-83409368D01*
X114413151Y-83389962D01*
X114405919Y-83369750D01*
X114400703Y-83348926D01*
X114397553Y-83327691D01*
X114396500Y-83306250D01*
X114396500Y-82868750D01*
X114397553Y-82847309D01*
X114400703Y-82826074D01*
X114405919Y-82805250D01*
X114413151Y-82785038D01*
X114422330Y-82765632D01*
X114433366Y-82747219D01*
X114446154Y-82729976D01*
X114460570Y-82714070D01*
X114476476Y-82699654D01*
X114493719Y-82686866D01*
X114512132Y-82675830D01*
X114531538Y-82666651D01*
X114551750Y-82659419D01*
X114572574Y-82654203D01*
X114593809Y-82651053D01*
X114615250Y-82650000D01*
X115127750Y-82650000D01*
X115149191Y-82651053D01*
G37*
G36*
X115149191Y-81076053D02*
G01*
X115170426Y-81079203D01*
X115191250Y-81084419D01*
X115211462Y-81091651D01*
X115230868Y-81100830D01*
X115249281Y-81111866D01*
X115266524Y-81124654D01*
X115282430Y-81139070D01*
X115296846Y-81154976D01*
X115309634Y-81172219D01*
X115320670Y-81190632D01*
X115329849Y-81210038D01*
X115337081Y-81230250D01*
X115342297Y-81251074D01*
X115345447Y-81272309D01*
X115346500Y-81293750D01*
X115346500Y-81731250D01*
X115345447Y-81752691D01*
X115342297Y-81773926D01*
X115337081Y-81794750D01*
X115329849Y-81814962D01*
X115320670Y-81834368D01*
X115309634Y-81852781D01*
X115296846Y-81870024D01*
X115282430Y-81885930D01*
X115266524Y-81900346D01*
X115249281Y-81913134D01*
X115230868Y-81924170D01*
X115211462Y-81933349D01*
X115191250Y-81940581D01*
X115170426Y-81945797D01*
X115149191Y-81948947D01*
X115127750Y-81950000D01*
X114615250Y-81950000D01*
X114593809Y-81948947D01*
X114572574Y-81945797D01*
X114551750Y-81940581D01*
X114531538Y-81933349D01*
X114512132Y-81924170D01*
X114493719Y-81913134D01*
X114476476Y-81900346D01*
X114460570Y-81885930D01*
X114446154Y-81870024D01*
X114433366Y-81852781D01*
X114422330Y-81834368D01*
X114413151Y-81814962D01*
X114405919Y-81794750D01*
X114400703Y-81773926D01*
X114397553Y-81752691D01*
X114396500Y-81731250D01*
X114396500Y-81293750D01*
X114397553Y-81272309D01*
X114400703Y-81251074D01*
X114405919Y-81230250D01*
X114413151Y-81210038D01*
X114422330Y-81190632D01*
X114433366Y-81172219D01*
X114446154Y-81154976D01*
X114460570Y-81139070D01*
X114476476Y-81124654D01*
X114493719Y-81111866D01*
X114512132Y-81100830D01*
X114531538Y-81091651D01*
X114551750Y-81084419D01*
X114572574Y-81079203D01*
X114593809Y-81076053D01*
X114615250Y-81075000D01*
X115127750Y-81075000D01*
X115149191Y-81076053D01*
G37*
D20*
X114300000Y-88534000D03*
X114300000Y-87234000D03*
X116200000Y-87884000D03*
X114300000Y-87884000D03*
X116200000Y-87234000D03*
X116200000Y-88534000D03*
D21*
X114503200Y-90855800D03*
X125488700Y-92887800D03*
X125526800Y-90779600D03*
D22*
X117915800Y-93517000D03*
X117915800Y-92867000D03*
X117915800Y-92217000D03*
X117915800Y-91567000D03*
X122215800Y-91567000D03*
X122215800Y-92217000D03*
X122215800Y-92867000D03*
X122215800Y-93517000D03*
D10*
G36*
X116391958Y-89898710D02*
G01*
X116406276Y-89900834D01*
X116420317Y-89904351D01*
X116433946Y-89909228D01*
X116447031Y-89915417D01*
X116459447Y-89922858D01*
X116471073Y-89931481D01*
X116481798Y-89941202D01*
X116491519Y-89951927D01*
X116500142Y-89963553D01*
X116507583Y-89975969D01*
X116513772Y-89989054D01*
X116518649Y-90002683D01*
X116522166Y-90016724D01*
X116524290Y-90031042D01*
X116525000Y-90045500D01*
X116525000Y-90340500D01*
X116524290Y-90354958D01*
X116522166Y-90369276D01*
X116518649Y-90383317D01*
X116513772Y-90396946D01*
X116507583Y-90410031D01*
X116500142Y-90422447D01*
X116491519Y-90434073D01*
X116481798Y-90444798D01*
X116471073Y-90454519D01*
X116459447Y-90463142D01*
X116447031Y-90470583D01*
X116433946Y-90476772D01*
X116420317Y-90481649D01*
X116406276Y-90485166D01*
X116391958Y-90487290D01*
X116377500Y-90488000D01*
X116032500Y-90488000D01*
X116018042Y-90487290D01*
X116003724Y-90485166D01*
X115989683Y-90481649D01*
X115976054Y-90476772D01*
X115962969Y-90470583D01*
X115950553Y-90463142D01*
X115938927Y-90454519D01*
X115928202Y-90444798D01*
X115918481Y-90434073D01*
X115909858Y-90422447D01*
X115902417Y-90410031D01*
X115896228Y-90396946D01*
X115891351Y-90383317D01*
X115887834Y-90369276D01*
X115885710Y-90354958D01*
X115885000Y-90340500D01*
X115885000Y-90045500D01*
X115885710Y-90031042D01*
X115887834Y-90016724D01*
X115891351Y-90002683D01*
X115896228Y-89989054D01*
X115902417Y-89975969D01*
X115909858Y-89963553D01*
X115918481Y-89951927D01*
X115928202Y-89941202D01*
X115938927Y-89931481D01*
X115950553Y-89922858D01*
X115962969Y-89915417D01*
X115976054Y-89909228D01*
X115989683Y-89904351D01*
X116003724Y-89900834D01*
X116018042Y-89898710D01*
X116032500Y-89898000D01*
X116377500Y-89898000D01*
X116391958Y-89898710D01*
G37*
G36*
X116391958Y-90868710D02*
G01*
X116406276Y-90870834D01*
X116420317Y-90874351D01*
X116433946Y-90879228D01*
X116447031Y-90885417D01*
X116459447Y-90892858D01*
X116471073Y-90901481D01*
X116481798Y-90911202D01*
X116491519Y-90921927D01*
X116500142Y-90933553D01*
X116507583Y-90945969D01*
X116513772Y-90959054D01*
X116518649Y-90972683D01*
X116522166Y-90986724D01*
X116524290Y-91001042D01*
X116525000Y-91015500D01*
X116525000Y-91310500D01*
X116524290Y-91324958D01*
X116522166Y-91339276D01*
X116518649Y-91353317D01*
X116513772Y-91366946D01*
X116507583Y-91380031D01*
X116500142Y-91392447D01*
X116491519Y-91404073D01*
X116481798Y-91414798D01*
X116471073Y-91424519D01*
X116459447Y-91433142D01*
X116447031Y-91440583D01*
X116433946Y-91446772D01*
X116420317Y-91451649D01*
X116406276Y-91455166D01*
X116391958Y-91457290D01*
X116377500Y-91458000D01*
X116032500Y-91458000D01*
X116018042Y-91457290D01*
X116003724Y-91455166D01*
X115989683Y-91451649D01*
X115976054Y-91446772D01*
X115962969Y-91440583D01*
X115950553Y-91433142D01*
X115938927Y-91424519D01*
X115928202Y-91414798D01*
X115918481Y-91404073D01*
X115909858Y-91392447D01*
X115902417Y-91380031D01*
X115896228Y-91366946D01*
X115891351Y-91353317D01*
X115887834Y-91339276D01*
X115885710Y-91324958D01*
X115885000Y-91310500D01*
X115885000Y-91015500D01*
X115885710Y-91001042D01*
X115887834Y-90986724D01*
X115891351Y-90972683D01*
X115896228Y-90959054D01*
X115902417Y-90945969D01*
X115909858Y-90933553D01*
X115918481Y-90921927D01*
X115928202Y-90911202D01*
X115938927Y-90901481D01*
X115950553Y-90892858D01*
X115962969Y-90885417D01*
X115976054Y-90879228D01*
X115989683Y-90874351D01*
X116003724Y-90870834D01*
X116018042Y-90868710D01*
X116032500Y-90868000D01*
X116377500Y-90868000D01*
X116391958Y-90868710D01*
G37*
G36*
X124024658Y-90952810D02*
G01*
X124038976Y-90954934D01*
X124053017Y-90958451D01*
X124066646Y-90963328D01*
X124079731Y-90969517D01*
X124092147Y-90976958D01*
X124103773Y-90985581D01*
X124114498Y-90995302D01*
X124124219Y-91006027D01*
X124132842Y-91017653D01*
X124140283Y-91030069D01*
X124146472Y-91043154D01*
X124151349Y-91056783D01*
X124154866Y-91070824D01*
X124156990Y-91085142D01*
X124157700Y-91099600D01*
X124157700Y-91394600D01*
X124156990Y-91409058D01*
X124154866Y-91423376D01*
X124151349Y-91437417D01*
X124146472Y-91451046D01*
X124140283Y-91464131D01*
X124132842Y-91476547D01*
X124124219Y-91488173D01*
X124114498Y-91498898D01*
X124103773Y-91508619D01*
X124092147Y-91517242D01*
X124079731Y-91524683D01*
X124066646Y-91530872D01*
X124053017Y-91535749D01*
X124038976Y-91539266D01*
X124024658Y-91541390D01*
X124010200Y-91542100D01*
X123665200Y-91542100D01*
X123650742Y-91541390D01*
X123636424Y-91539266D01*
X123622383Y-91535749D01*
X123608754Y-91530872D01*
X123595669Y-91524683D01*
X123583253Y-91517242D01*
X123571627Y-91508619D01*
X123560902Y-91498898D01*
X123551181Y-91488173D01*
X123542558Y-91476547D01*
X123535117Y-91464131D01*
X123528928Y-91451046D01*
X123524051Y-91437417D01*
X123520534Y-91423376D01*
X123518410Y-91409058D01*
X123517700Y-91394600D01*
X123517700Y-91099600D01*
X123518410Y-91085142D01*
X123520534Y-91070824D01*
X123524051Y-91056783D01*
X123528928Y-91043154D01*
X123535117Y-91030069D01*
X123542558Y-91017653D01*
X123551181Y-91006027D01*
X123560902Y-90995302D01*
X123571627Y-90985581D01*
X123583253Y-90976958D01*
X123595669Y-90969517D01*
X123608754Y-90963328D01*
X123622383Y-90958451D01*
X123636424Y-90954934D01*
X123650742Y-90952810D01*
X123665200Y-90952100D01*
X124010200Y-90952100D01*
X124024658Y-90952810D01*
G37*
G36*
X124024658Y-91922810D02*
G01*
X124038976Y-91924934D01*
X124053017Y-91928451D01*
X124066646Y-91933328D01*
X124079731Y-91939517D01*
X124092147Y-91946958D01*
X124103773Y-91955581D01*
X124114498Y-91965302D01*
X124124219Y-91976027D01*
X124132842Y-91987653D01*
X124140283Y-92000069D01*
X124146472Y-92013154D01*
X124151349Y-92026783D01*
X124154866Y-92040824D01*
X124156990Y-92055142D01*
X124157700Y-92069600D01*
X124157700Y-92364600D01*
X124156990Y-92379058D01*
X124154866Y-92393376D01*
X124151349Y-92407417D01*
X124146472Y-92421046D01*
X124140283Y-92434131D01*
X124132842Y-92446547D01*
X124124219Y-92458173D01*
X124114498Y-92468898D01*
X124103773Y-92478619D01*
X124092147Y-92487242D01*
X124079731Y-92494683D01*
X124066646Y-92500872D01*
X124053017Y-92505749D01*
X124038976Y-92509266D01*
X124024658Y-92511390D01*
X124010200Y-92512100D01*
X123665200Y-92512100D01*
X123650742Y-92511390D01*
X123636424Y-92509266D01*
X123622383Y-92505749D01*
X123608754Y-92500872D01*
X123595669Y-92494683D01*
X123583253Y-92487242D01*
X123571627Y-92478619D01*
X123560902Y-92468898D01*
X123551181Y-92458173D01*
X123542558Y-92446547D01*
X123535117Y-92434131D01*
X123528928Y-92421046D01*
X123524051Y-92407417D01*
X123520534Y-92393376D01*
X123518410Y-92379058D01*
X123517700Y-92364600D01*
X123517700Y-92069600D01*
X123518410Y-92055142D01*
X123520534Y-92040824D01*
X123524051Y-92026783D01*
X123528928Y-92013154D01*
X123535117Y-92000069D01*
X123542558Y-91987653D01*
X123551181Y-91976027D01*
X123560902Y-91965302D01*
X123571627Y-91955581D01*
X123583253Y-91946958D01*
X123595669Y-91939517D01*
X123608754Y-91933328D01*
X123622383Y-91928451D01*
X123636424Y-91924934D01*
X123650742Y-91922810D01*
X123665200Y-91922100D01*
X124010200Y-91922100D01*
X124024658Y-91922810D01*
G37*
G36*
X115716858Y-84808810D02*
G01*
X115731176Y-84810934D01*
X115745217Y-84814451D01*
X115758846Y-84819328D01*
X115771931Y-84825517D01*
X115784347Y-84832958D01*
X115795973Y-84841581D01*
X115806698Y-84851302D01*
X115816419Y-84862027D01*
X115825042Y-84873653D01*
X115832483Y-84886069D01*
X115838672Y-84899154D01*
X115843549Y-84912783D01*
X115847066Y-84926824D01*
X115849190Y-84941142D01*
X115849900Y-84955600D01*
X115849900Y-85300600D01*
X115849190Y-85315058D01*
X115847066Y-85329376D01*
X115843549Y-85343417D01*
X115838672Y-85357046D01*
X115832483Y-85370131D01*
X115825042Y-85382547D01*
X115816419Y-85394173D01*
X115806698Y-85404898D01*
X115795973Y-85414619D01*
X115784347Y-85423242D01*
X115771931Y-85430683D01*
X115758846Y-85436872D01*
X115745217Y-85441749D01*
X115731176Y-85445266D01*
X115716858Y-85447390D01*
X115702400Y-85448100D01*
X115407400Y-85448100D01*
X115392942Y-85447390D01*
X115378624Y-85445266D01*
X115364583Y-85441749D01*
X115350954Y-85436872D01*
X115337869Y-85430683D01*
X115325453Y-85423242D01*
X115313827Y-85414619D01*
X115303102Y-85404898D01*
X115293381Y-85394173D01*
X115284758Y-85382547D01*
X115277317Y-85370131D01*
X115271128Y-85357046D01*
X115266251Y-85343417D01*
X115262734Y-85329376D01*
X115260610Y-85315058D01*
X115259900Y-85300600D01*
X115259900Y-84955600D01*
X115260610Y-84941142D01*
X115262734Y-84926824D01*
X115266251Y-84912783D01*
X115271128Y-84899154D01*
X115277317Y-84886069D01*
X115284758Y-84873653D01*
X115293381Y-84862027D01*
X115303102Y-84851302D01*
X115313827Y-84841581D01*
X115325453Y-84832958D01*
X115337869Y-84825517D01*
X115350954Y-84819328D01*
X115364583Y-84814451D01*
X115378624Y-84810934D01*
X115392942Y-84808810D01*
X115407400Y-84808100D01*
X115702400Y-84808100D01*
X115716858Y-84808810D01*
G37*
G36*
X116686858Y-84808810D02*
G01*
X116701176Y-84810934D01*
X116715217Y-84814451D01*
X116728846Y-84819328D01*
X116741931Y-84825517D01*
X116754347Y-84832958D01*
X116765973Y-84841581D01*
X116776698Y-84851302D01*
X116786419Y-84862027D01*
X116795042Y-84873653D01*
X116802483Y-84886069D01*
X116808672Y-84899154D01*
X116813549Y-84912783D01*
X116817066Y-84926824D01*
X116819190Y-84941142D01*
X116819900Y-84955600D01*
X116819900Y-85300600D01*
X116819190Y-85315058D01*
X116817066Y-85329376D01*
X116813549Y-85343417D01*
X116808672Y-85357046D01*
X116802483Y-85370131D01*
X116795042Y-85382547D01*
X116786419Y-85394173D01*
X116776698Y-85404898D01*
X116765973Y-85414619D01*
X116754347Y-85423242D01*
X116741931Y-85430683D01*
X116728846Y-85436872D01*
X116715217Y-85441749D01*
X116701176Y-85445266D01*
X116686858Y-85447390D01*
X116672400Y-85448100D01*
X116377400Y-85448100D01*
X116362942Y-85447390D01*
X116348624Y-85445266D01*
X116334583Y-85441749D01*
X116320954Y-85436872D01*
X116307869Y-85430683D01*
X116295453Y-85423242D01*
X116283827Y-85414619D01*
X116273102Y-85404898D01*
X116263381Y-85394173D01*
X116254758Y-85382547D01*
X116247317Y-85370131D01*
X116241128Y-85357046D01*
X116236251Y-85343417D01*
X116232734Y-85329376D01*
X116230610Y-85315058D01*
X116229900Y-85300600D01*
X116229900Y-84955600D01*
X116230610Y-84941142D01*
X116232734Y-84926824D01*
X116236251Y-84912783D01*
X116241128Y-84899154D01*
X116247317Y-84886069D01*
X116254758Y-84873653D01*
X116263381Y-84862027D01*
X116273102Y-84851302D01*
X116283827Y-84841581D01*
X116295453Y-84832958D01*
X116307869Y-84825517D01*
X116320954Y-84819328D01*
X116334583Y-84814451D01*
X116348624Y-84810934D01*
X116362942Y-84808810D01*
X116377400Y-84808100D01*
X116672400Y-84808100D01*
X116686858Y-84808810D01*
G37*
G36*
X103691958Y-80373710D02*
G01*
X103706276Y-80375834D01*
X103720317Y-80379351D01*
X103733946Y-80384228D01*
X103747031Y-80390417D01*
X103759447Y-80397858D01*
X103771073Y-80406481D01*
X103781798Y-80416202D01*
X103791519Y-80426927D01*
X103800142Y-80438553D01*
X103807583Y-80450969D01*
X103813772Y-80464054D01*
X103818649Y-80477683D01*
X103822166Y-80491724D01*
X103824290Y-80506042D01*
X103825000Y-80520500D01*
X103825000Y-80815500D01*
X103824290Y-80829958D01*
X103822166Y-80844276D01*
X103818649Y-80858317D01*
X103813772Y-80871946D01*
X103807583Y-80885031D01*
X103800142Y-80897447D01*
X103791519Y-80909073D01*
X103781798Y-80919798D01*
X103771073Y-80929519D01*
X103759447Y-80938142D01*
X103747031Y-80945583D01*
X103733946Y-80951772D01*
X103720317Y-80956649D01*
X103706276Y-80960166D01*
X103691958Y-80962290D01*
X103677500Y-80963000D01*
X103332500Y-80963000D01*
X103318042Y-80962290D01*
X103303724Y-80960166D01*
X103289683Y-80956649D01*
X103276054Y-80951772D01*
X103262969Y-80945583D01*
X103250553Y-80938142D01*
X103238927Y-80929519D01*
X103228202Y-80919798D01*
X103218481Y-80909073D01*
X103209858Y-80897447D01*
X103202417Y-80885031D01*
X103196228Y-80871946D01*
X103191351Y-80858317D01*
X103187834Y-80844276D01*
X103185710Y-80829958D01*
X103185000Y-80815500D01*
X103185000Y-80520500D01*
X103185710Y-80506042D01*
X103187834Y-80491724D01*
X103191351Y-80477683D01*
X103196228Y-80464054D01*
X103202417Y-80450969D01*
X103209858Y-80438553D01*
X103218481Y-80426927D01*
X103228202Y-80416202D01*
X103238927Y-80406481D01*
X103250553Y-80397858D01*
X103262969Y-80390417D01*
X103276054Y-80384228D01*
X103289683Y-80379351D01*
X103303724Y-80375834D01*
X103318042Y-80373710D01*
X103332500Y-80373000D01*
X103677500Y-80373000D01*
X103691958Y-80373710D01*
G37*
G36*
X103691958Y-81343710D02*
G01*
X103706276Y-81345834D01*
X103720317Y-81349351D01*
X103733946Y-81354228D01*
X103747031Y-81360417D01*
X103759447Y-81367858D01*
X103771073Y-81376481D01*
X103781798Y-81386202D01*
X103791519Y-81396927D01*
X103800142Y-81408553D01*
X103807583Y-81420969D01*
X103813772Y-81434054D01*
X103818649Y-81447683D01*
X103822166Y-81461724D01*
X103824290Y-81476042D01*
X103825000Y-81490500D01*
X103825000Y-81785500D01*
X103824290Y-81799958D01*
X103822166Y-81814276D01*
X103818649Y-81828317D01*
X103813772Y-81841946D01*
X103807583Y-81855031D01*
X103800142Y-81867447D01*
X103791519Y-81879073D01*
X103781798Y-81889798D01*
X103771073Y-81899519D01*
X103759447Y-81908142D01*
X103747031Y-81915583D01*
X103733946Y-81921772D01*
X103720317Y-81926649D01*
X103706276Y-81930166D01*
X103691958Y-81932290D01*
X103677500Y-81933000D01*
X103332500Y-81933000D01*
X103318042Y-81932290D01*
X103303724Y-81930166D01*
X103289683Y-81926649D01*
X103276054Y-81921772D01*
X103262969Y-81915583D01*
X103250553Y-81908142D01*
X103238927Y-81899519D01*
X103228202Y-81889798D01*
X103218481Y-81879073D01*
X103209858Y-81867447D01*
X103202417Y-81855031D01*
X103196228Y-81841946D01*
X103191351Y-81828317D01*
X103187834Y-81814276D01*
X103185710Y-81799958D01*
X103185000Y-81785500D01*
X103185000Y-81490500D01*
X103185710Y-81476042D01*
X103187834Y-81461724D01*
X103191351Y-81447683D01*
X103196228Y-81434054D01*
X103202417Y-81420969D01*
X103209858Y-81408553D01*
X103218481Y-81396927D01*
X103228202Y-81386202D01*
X103238927Y-81376481D01*
X103250553Y-81367858D01*
X103262969Y-81360417D01*
X103276054Y-81354228D01*
X103289683Y-81349351D01*
X103303724Y-81345834D01*
X103318042Y-81343710D01*
X103332500Y-81343000D01*
X103677500Y-81343000D01*
X103691958Y-81343710D01*
G37*
G36*
X101088458Y-77813110D02*
G01*
X101102776Y-77815234D01*
X101116817Y-77818751D01*
X101130446Y-77823628D01*
X101143531Y-77829817D01*
X101155947Y-77837258D01*
X101167573Y-77845881D01*
X101178298Y-77855602D01*
X101188019Y-77866327D01*
X101196642Y-77877953D01*
X101204083Y-77890369D01*
X101210272Y-77903454D01*
X101215149Y-77917083D01*
X101218666Y-77931124D01*
X101220790Y-77945442D01*
X101221500Y-77959900D01*
X101221500Y-78254900D01*
X101220790Y-78269358D01*
X101218666Y-78283676D01*
X101215149Y-78297717D01*
X101210272Y-78311346D01*
X101204083Y-78324431D01*
X101196642Y-78336847D01*
X101188019Y-78348473D01*
X101178298Y-78359198D01*
X101167573Y-78368919D01*
X101155947Y-78377542D01*
X101143531Y-78384983D01*
X101130446Y-78391172D01*
X101116817Y-78396049D01*
X101102776Y-78399566D01*
X101088458Y-78401690D01*
X101074000Y-78402400D01*
X100729000Y-78402400D01*
X100714542Y-78401690D01*
X100700224Y-78399566D01*
X100686183Y-78396049D01*
X100672554Y-78391172D01*
X100659469Y-78384983D01*
X100647053Y-78377542D01*
X100635427Y-78368919D01*
X100624702Y-78359198D01*
X100614981Y-78348473D01*
X100606358Y-78336847D01*
X100598917Y-78324431D01*
X100592728Y-78311346D01*
X100587851Y-78297717D01*
X100584334Y-78283676D01*
X100582210Y-78269358D01*
X100581500Y-78254900D01*
X100581500Y-77959900D01*
X100582210Y-77945442D01*
X100584334Y-77931124D01*
X100587851Y-77917083D01*
X100592728Y-77903454D01*
X100598917Y-77890369D01*
X100606358Y-77877953D01*
X100614981Y-77866327D01*
X100624702Y-77855602D01*
X100635427Y-77845881D01*
X100647053Y-77837258D01*
X100659469Y-77829817D01*
X100672554Y-77823628D01*
X100686183Y-77818751D01*
X100700224Y-77815234D01*
X100714542Y-77813110D01*
X100729000Y-77812400D01*
X101074000Y-77812400D01*
X101088458Y-77813110D01*
G37*
G36*
X101088458Y-76843110D02*
G01*
X101102776Y-76845234D01*
X101116817Y-76848751D01*
X101130446Y-76853628D01*
X101143531Y-76859817D01*
X101155947Y-76867258D01*
X101167573Y-76875881D01*
X101178298Y-76885602D01*
X101188019Y-76896327D01*
X101196642Y-76907953D01*
X101204083Y-76920369D01*
X101210272Y-76933454D01*
X101215149Y-76947083D01*
X101218666Y-76961124D01*
X101220790Y-76975442D01*
X101221500Y-76989900D01*
X101221500Y-77284900D01*
X101220790Y-77299358D01*
X101218666Y-77313676D01*
X101215149Y-77327717D01*
X101210272Y-77341346D01*
X101204083Y-77354431D01*
X101196642Y-77366847D01*
X101188019Y-77378473D01*
X101178298Y-77389198D01*
X101167573Y-77398919D01*
X101155947Y-77407542D01*
X101143531Y-77414983D01*
X101130446Y-77421172D01*
X101116817Y-77426049D01*
X101102776Y-77429566D01*
X101088458Y-77431690D01*
X101074000Y-77432400D01*
X100729000Y-77432400D01*
X100714542Y-77431690D01*
X100700224Y-77429566D01*
X100686183Y-77426049D01*
X100672554Y-77421172D01*
X100659469Y-77414983D01*
X100647053Y-77407542D01*
X100635427Y-77398919D01*
X100624702Y-77389198D01*
X100614981Y-77378473D01*
X100606358Y-77366847D01*
X100598917Y-77354431D01*
X100592728Y-77341346D01*
X100587851Y-77327717D01*
X100584334Y-77313676D01*
X100582210Y-77299358D01*
X100581500Y-77284900D01*
X100581500Y-76989900D01*
X100582210Y-76975442D01*
X100584334Y-76961124D01*
X100587851Y-76947083D01*
X100592728Y-76933454D01*
X100598917Y-76920369D01*
X100606358Y-76907953D01*
X100614981Y-76896327D01*
X100624702Y-76885602D01*
X100635427Y-76875881D01*
X100647053Y-76867258D01*
X100659469Y-76859817D01*
X100672554Y-76853628D01*
X100686183Y-76848751D01*
X100700224Y-76845234D01*
X100714542Y-76843110D01*
X100729000Y-76842400D01*
X101074000Y-76842400D01*
X101088458Y-76843110D01*
G37*
D23*
X118176500Y-100725000D03*
X118163800Y-95968200D03*
X121630090Y-95968200D03*
D10*
G36*
X119820958Y-84872050D02*
G01*
X119835276Y-84874174D01*
X119849317Y-84877691D01*
X119862946Y-84882568D01*
X119876031Y-84888757D01*
X119888447Y-84896198D01*
X119900073Y-84904821D01*
X119910798Y-84914542D01*
X119920519Y-84925267D01*
X119929142Y-84936893D01*
X119936583Y-84949309D01*
X119942772Y-84962394D01*
X119947649Y-84976023D01*
X119951166Y-84990064D01*
X119953290Y-85004382D01*
X119954000Y-85018840D01*
X119954000Y-85313840D01*
X119953290Y-85328298D01*
X119951166Y-85342616D01*
X119947649Y-85356657D01*
X119942772Y-85370286D01*
X119936583Y-85383371D01*
X119929142Y-85395787D01*
X119920519Y-85407413D01*
X119910798Y-85418138D01*
X119900073Y-85427859D01*
X119888447Y-85436482D01*
X119876031Y-85443923D01*
X119862946Y-85450112D01*
X119849317Y-85454989D01*
X119835276Y-85458506D01*
X119820958Y-85460630D01*
X119806500Y-85461340D01*
X119461500Y-85461340D01*
X119447042Y-85460630D01*
X119432724Y-85458506D01*
X119418683Y-85454989D01*
X119405054Y-85450112D01*
X119391969Y-85443923D01*
X119379553Y-85436482D01*
X119367927Y-85427859D01*
X119357202Y-85418138D01*
X119347481Y-85407413D01*
X119338858Y-85395787D01*
X119331417Y-85383371D01*
X119325228Y-85370286D01*
X119320351Y-85356657D01*
X119316834Y-85342616D01*
X119314710Y-85328298D01*
X119314000Y-85313840D01*
X119314000Y-85018840D01*
X119314710Y-85004382D01*
X119316834Y-84990064D01*
X119320351Y-84976023D01*
X119325228Y-84962394D01*
X119331417Y-84949309D01*
X119338858Y-84936893D01*
X119347481Y-84925267D01*
X119357202Y-84914542D01*
X119367927Y-84904821D01*
X119379553Y-84896198D01*
X119391969Y-84888757D01*
X119405054Y-84882568D01*
X119418683Y-84877691D01*
X119432724Y-84874174D01*
X119447042Y-84872050D01*
X119461500Y-84871340D01*
X119806500Y-84871340D01*
X119820958Y-84872050D01*
G37*
G36*
X119820958Y-85842050D02*
G01*
X119835276Y-85844174D01*
X119849317Y-85847691D01*
X119862946Y-85852568D01*
X119876031Y-85858757D01*
X119888447Y-85866198D01*
X119900073Y-85874821D01*
X119910798Y-85884542D01*
X119920519Y-85895267D01*
X119929142Y-85906893D01*
X119936583Y-85919309D01*
X119942772Y-85932394D01*
X119947649Y-85946023D01*
X119951166Y-85960064D01*
X119953290Y-85974382D01*
X119954000Y-85988840D01*
X119954000Y-86283840D01*
X119953290Y-86298298D01*
X119951166Y-86312616D01*
X119947649Y-86326657D01*
X119942772Y-86340286D01*
X119936583Y-86353371D01*
X119929142Y-86365787D01*
X119920519Y-86377413D01*
X119910798Y-86388138D01*
X119900073Y-86397859D01*
X119888447Y-86406482D01*
X119876031Y-86413923D01*
X119862946Y-86420112D01*
X119849317Y-86424989D01*
X119835276Y-86428506D01*
X119820958Y-86430630D01*
X119806500Y-86431340D01*
X119461500Y-86431340D01*
X119447042Y-86430630D01*
X119432724Y-86428506D01*
X119418683Y-86424989D01*
X119405054Y-86420112D01*
X119391969Y-86413923D01*
X119379553Y-86406482D01*
X119367927Y-86397859D01*
X119357202Y-86388138D01*
X119347481Y-86377413D01*
X119338858Y-86365787D01*
X119331417Y-86353371D01*
X119325228Y-86340286D01*
X119320351Y-86326657D01*
X119316834Y-86312616D01*
X119314710Y-86298298D01*
X119314000Y-86283840D01*
X119314000Y-85988840D01*
X119314710Y-85974382D01*
X119316834Y-85960064D01*
X119320351Y-85946023D01*
X119325228Y-85932394D01*
X119331417Y-85919309D01*
X119338858Y-85906893D01*
X119347481Y-85895267D01*
X119357202Y-85884542D01*
X119367927Y-85874821D01*
X119379553Y-85866198D01*
X119391969Y-85858757D01*
X119405054Y-85852568D01*
X119418683Y-85847691D01*
X119432724Y-85844174D01*
X119447042Y-85842050D01*
X119461500Y-85841340D01*
X119806500Y-85841340D01*
X119820958Y-85842050D01*
G37*
G36*
X121471958Y-85009210D02*
G01*
X121486276Y-85011334D01*
X121500317Y-85014851D01*
X121513946Y-85019728D01*
X121527031Y-85025917D01*
X121539447Y-85033358D01*
X121551073Y-85041981D01*
X121561798Y-85051702D01*
X121571519Y-85062427D01*
X121580142Y-85074053D01*
X121587583Y-85086469D01*
X121593772Y-85099554D01*
X121598649Y-85113183D01*
X121602166Y-85127224D01*
X121604290Y-85141542D01*
X121605000Y-85156000D01*
X121605000Y-85451000D01*
X121604290Y-85465458D01*
X121602166Y-85479776D01*
X121598649Y-85493817D01*
X121593772Y-85507446D01*
X121587583Y-85520531D01*
X121580142Y-85532947D01*
X121571519Y-85544573D01*
X121561798Y-85555298D01*
X121551073Y-85565019D01*
X121539447Y-85573642D01*
X121527031Y-85581083D01*
X121513946Y-85587272D01*
X121500317Y-85592149D01*
X121486276Y-85595666D01*
X121471958Y-85597790D01*
X121457500Y-85598500D01*
X121112500Y-85598500D01*
X121098042Y-85597790D01*
X121083724Y-85595666D01*
X121069683Y-85592149D01*
X121056054Y-85587272D01*
X121042969Y-85581083D01*
X121030553Y-85573642D01*
X121018927Y-85565019D01*
X121008202Y-85555298D01*
X120998481Y-85544573D01*
X120989858Y-85532947D01*
X120982417Y-85520531D01*
X120976228Y-85507446D01*
X120971351Y-85493817D01*
X120967834Y-85479776D01*
X120965710Y-85465458D01*
X120965000Y-85451000D01*
X120965000Y-85156000D01*
X120965710Y-85141542D01*
X120967834Y-85127224D01*
X120971351Y-85113183D01*
X120976228Y-85099554D01*
X120982417Y-85086469D01*
X120989858Y-85074053D01*
X120998481Y-85062427D01*
X121008202Y-85051702D01*
X121018927Y-85041981D01*
X121030553Y-85033358D01*
X121042969Y-85025917D01*
X121056054Y-85019728D01*
X121069683Y-85014851D01*
X121083724Y-85011334D01*
X121098042Y-85009210D01*
X121112500Y-85008500D01*
X121457500Y-85008500D01*
X121471958Y-85009210D01*
G37*
G36*
X121471958Y-85979210D02*
G01*
X121486276Y-85981334D01*
X121500317Y-85984851D01*
X121513946Y-85989728D01*
X121527031Y-85995917D01*
X121539447Y-86003358D01*
X121551073Y-86011981D01*
X121561798Y-86021702D01*
X121571519Y-86032427D01*
X121580142Y-86044053D01*
X121587583Y-86056469D01*
X121593772Y-86069554D01*
X121598649Y-86083183D01*
X121602166Y-86097224D01*
X121604290Y-86111542D01*
X121605000Y-86126000D01*
X121605000Y-86421000D01*
X121604290Y-86435458D01*
X121602166Y-86449776D01*
X121598649Y-86463817D01*
X121593772Y-86477446D01*
X121587583Y-86490531D01*
X121580142Y-86502947D01*
X121571519Y-86514573D01*
X121561798Y-86525298D01*
X121551073Y-86535019D01*
X121539447Y-86543642D01*
X121527031Y-86551083D01*
X121513946Y-86557272D01*
X121500317Y-86562149D01*
X121486276Y-86565666D01*
X121471958Y-86567790D01*
X121457500Y-86568500D01*
X121112500Y-86568500D01*
X121098042Y-86567790D01*
X121083724Y-86565666D01*
X121069683Y-86562149D01*
X121056054Y-86557272D01*
X121042969Y-86551083D01*
X121030553Y-86543642D01*
X121018927Y-86535019D01*
X121008202Y-86525298D01*
X120998481Y-86514573D01*
X120989858Y-86502947D01*
X120982417Y-86490531D01*
X120976228Y-86477446D01*
X120971351Y-86463817D01*
X120967834Y-86449776D01*
X120965710Y-86435458D01*
X120965000Y-86421000D01*
X120965000Y-86126000D01*
X120965710Y-86111542D01*
X120967834Y-86097224D01*
X120971351Y-86083183D01*
X120976228Y-86069554D01*
X120982417Y-86056469D01*
X120989858Y-86044053D01*
X120998481Y-86032427D01*
X121008202Y-86021702D01*
X121018927Y-86011981D01*
X121030553Y-86003358D01*
X121042969Y-85995917D01*
X121056054Y-85989728D01*
X121069683Y-85984851D01*
X121083724Y-85981334D01*
X121098042Y-85979210D01*
X121112500Y-85978500D01*
X121457500Y-85978500D01*
X121471958Y-85979210D01*
G37*
G36*
X123607592Y-88570177D02*
G01*
X123621972Y-88571831D01*
X123636121Y-88574887D01*
X123649902Y-88579315D01*
X123663183Y-88585072D01*
X123675835Y-88592104D01*
X123687737Y-88600341D01*
X123698775Y-88609706D01*
X123708841Y-88620108D01*
X123717840Y-88631446D01*
X123725684Y-88643611D01*
X123898184Y-88942389D01*
X123904797Y-88955265D01*
X123910117Y-88968727D01*
X123914092Y-88982645D01*
X123916683Y-88996886D01*
X123917866Y-89011313D01*
X123917629Y-89025786D01*
X123915975Y-89040166D01*
X123912919Y-89054315D01*
X123908491Y-89068096D01*
X123902734Y-89081376D01*
X123895702Y-89094029D01*
X123887465Y-89105931D01*
X123878100Y-89116969D01*
X123867699Y-89127035D01*
X123856361Y-89136034D01*
X123844195Y-89143878D01*
X123588717Y-89291378D01*
X123575841Y-89297991D01*
X123562379Y-89303311D01*
X123548461Y-89307286D01*
X123534219Y-89309877D01*
X123519793Y-89311060D01*
X123505320Y-89310823D01*
X123490940Y-89309169D01*
X123476791Y-89306113D01*
X123463010Y-89301685D01*
X123449729Y-89295928D01*
X123437077Y-89288896D01*
X123425175Y-89280659D01*
X123414137Y-89271294D01*
X123404071Y-89260892D01*
X123395072Y-89249554D01*
X123387228Y-89237389D01*
X123214728Y-88938611D01*
X123208115Y-88925735D01*
X123202795Y-88912273D01*
X123198820Y-88898355D01*
X123196229Y-88884114D01*
X123195046Y-88869687D01*
X123195283Y-88855214D01*
X123196937Y-88840834D01*
X123199993Y-88826685D01*
X123204421Y-88812904D01*
X123210178Y-88799624D01*
X123217210Y-88786971D01*
X123225447Y-88775069D01*
X123234812Y-88764031D01*
X123245213Y-88753965D01*
X123256551Y-88744966D01*
X123268717Y-88737122D01*
X123524195Y-88589622D01*
X123537071Y-88583009D01*
X123550533Y-88577689D01*
X123564451Y-88573714D01*
X123578693Y-88571123D01*
X123593119Y-88569940D01*
X123607592Y-88570177D01*
G37*
G36*
X124447636Y-88085177D02*
G01*
X124462016Y-88086831D01*
X124476165Y-88089887D01*
X124489946Y-88094315D01*
X124503227Y-88100072D01*
X124515879Y-88107104D01*
X124527781Y-88115341D01*
X124538819Y-88124706D01*
X124548885Y-88135108D01*
X124557884Y-88146446D01*
X124565728Y-88158611D01*
X124738228Y-88457389D01*
X124744841Y-88470265D01*
X124750161Y-88483727D01*
X124754136Y-88497645D01*
X124756727Y-88511886D01*
X124757910Y-88526313D01*
X124757673Y-88540786D01*
X124756019Y-88555166D01*
X124752963Y-88569315D01*
X124748535Y-88583096D01*
X124742778Y-88596376D01*
X124735746Y-88609029D01*
X124727509Y-88620931D01*
X124718144Y-88631969D01*
X124707743Y-88642035D01*
X124696405Y-88651034D01*
X124684239Y-88658878D01*
X124428761Y-88806378D01*
X124415885Y-88812991D01*
X124402423Y-88818311D01*
X124388505Y-88822286D01*
X124374263Y-88824877D01*
X124359837Y-88826060D01*
X124345364Y-88825823D01*
X124330984Y-88824169D01*
X124316835Y-88821113D01*
X124303054Y-88816685D01*
X124289773Y-88810928D01*
X124277121Y-88803896D01*
X124265219Y-88795659D01*
X124254181Y-88786294D01*
X124244115Y-88775892D01*
X124235116Y-88764554D01*
X124227272Y-88752389D01*
X124054772Y-88453611D01*
X124048159Y-88440735D01*
X124042839Y-88427273D01*
X124038864Y-88413355D01*
X124036273Y-88399114D01*
X124035090Y-88384687D01*
X124035327Y-88370214D01*
X124036981Y-88355834D01*
X124040037Y-88341685D01*
X124044465Y-88327904D01*
X124050222Y-88314624D01*
X124057254Y-88301971D01*
X124065491Y-88290069D01*
X124074856Y-88279031D01*
X124085257Y-88268965D01*
X124096595Y-88259966D01*
X124108761Y-88252122D01*
X124364239Y-88104622D01*
X124377115Y-88098009D01*
X124390577Y-88092689D01*
X124404495Y-88088714D01*
X124418737Y-88086123D01*
X124433163Y-88084940D01*
X124447636Y-88085177D01*
G37*
G36*
X116391958Y-91930710D02*
G01*
X116406276Y-91932834D01*
X116420317Y-91936351D01*
X116433946Y-91941228D01*
X116447031Y-91947417D01*
X116459447Y-91954858D01*
X116471073Y-91963481D01*
X116481798Y-91973202D01*
X116491519Y-91983927D01*
X116500142Y-91995553D01*
X116507583Y-92007969D01*
X116513772Y-92021054D01*
X116518649Y-92034683D01*
X116522166Y-92048724D01*
X116524290Y-92063042D01*
X116525000Y-92077500D01*
X116525000Y-92372500D01*
X116524290Y-92386958D01*
X116522166Y-92401276D01*
X116518649Y-92415317D01*
X116513772Y-92428946D01*
X116507583Y-92442031D01*
X116500142Y-92454447D01*
X116491519Y-92466073D01*
X116481798Y-92476798D01*
X116471073Y-92486519D01*
X116459447Y-92495142D01*
X116447031Y-92502583D01*
X116433946Y-92508772D01*
X116420317Y-92513649D01*
X116406276Y-92517166D01*
X116391958Y-92519290D01*
X116377500Y-92520000D01*
X116032500Y-92520000D01*
X116018042Y-92519290D01*
X116003724Y-92517166D01*
X115989683Y-92513649D01*
X115976054Y-92508772D01*
X115962969Y-92502583D01*
X115950553Y-92495142D01*
X115938927Y-92486519D01*
X115928202Y-92476798D01*
X115918481Y-92466073D01*
X115909858Y-92454447D01*
X115902417Y-92442031D01*
X115896228Y-92428946D01*
X115891351Y-92415317D01*
X115887834Y-92401276D01*
X115885710Y-92386958D01*
X115885000Y-92372500D01*
X115885000Y-92077500D01*
X115885710Y-92063042D01*
X115887834Y-92048724D01*
X115891351Y-92034683D01*
X115896228Y-92021054D01*
X115902417Y-92007969D01*
X115909858Y-91995553D01*
X115918481Y-91983927D01*
X115928202Y-91973202D01*
X115938927Y-91963481D01*
X115950553Y-91954858D01*
X115962969Y-91947417D01*
X115976054Y-91941228D01*
X115989683Y-91936351D01*
X116003724Y-91932834D01*
X116018042Y-91930710D01*
X116032500Y-91930000D01*
X116377500Y-91930000D01*
X116391958Y-91930710D01*
G37*
G36*
X116391958Y-92900710D02*
G01*
X116406276Y-92902834D01*
X116420317Y-92906351D01*
X116433946Y-92911228D01*
X116447031Y-92917417D01*
X116459447Y-92924858D01*
X116471073Y-92933481D01*
X116481798Y-92943202D01*
X116491519Y-92953927D01*
X116500142Y-92965553D01*
X116507583Y-92977969D01*
X116513772Y-92991054D01*
X116518649Y-93004683D01*
X116522166Y-93018724D01*
X116524290Y-93033042D01*
X116525000Y-93047500D01*
X116525000Y-93342500D01*
X116524290Y-93356958D01*
X116522166Y-93371276D01*
X116518649Y-93385317D01*
X116513772Y-93398946D01*
X116507583Y-93412031D01*
X116500142Y-93424447D01*
X116491519Y-93436073D01*
X116481798Y-93446798D01*
X116471073Y-93456519D01*
X116459447Y-93465142D01*
X116447031Y-93472583D01*
X116433946Y-93478772D01*
X116420317Y-93483649D01*
X116406276Y-93487166D01*
X116391958Y-93489290D01*
X116377500Y-93490000D01*
X116032500Y-93490000D01*
X116018042Y-93489290D01*
X116003724Y-93487166D01*
X115989683Y-93483649D01*
X115976054Y-93478772D01*
X115962969Y-93472583D01*
X115950553Y-93465142D01*
X115938927Y-93456519D01*
X115928202Y-93446798D01*
X115918481Y-93436073D01*
X115909858Y-93424447D01*
X115902417Y-93412031D01*
X115896228Y-93398946D01*
X115891351Y-93385317D01*
X115887834Y-93371276D01*
X115885710Y-93356958D01*
X115885000Y-93342500D01*
X115885000Y-93047500D01*
X115885710Y-93033042D01*
X115887834Y-93018724D01*
X115891351Y-93004683D01*
X115896228Y-92991054D01*
X115902417Y-92977969D01*
X115909858Y-92965553D01*
X115918481Y-92953927D01*
X115928202Y-92943202D01*
X115938927Y-92933481D01*
X115950553Y-92924858D01*
X115962969Y-92917417D01*
X115976054Y-92911228D01*
X115989683Y-92906351D01*
X116003724Y-92902834D01*
X116018042Y-92900710D01*
X116032500Y-92900000D01*
X116377500Y-92900000D01*
X116391958Y-92900710D01*
G37*
G36*
X117725458Y-88582710D02*
G01*
X117739776Y-88584834D01*
X117753817Y-88588351D01*
X117767446Y-88593228D01*
X117780531Y-88599417D01*
X117792947Y-88606858D01*
X117804573Y-88615481D01*
X117815298Y-88625202D01*
X117825019Y-88635927D01*
X117833642Y-88647553D01*
X117841083Y-88659969D01*
X117847272Y-88673054D01*
X117852149Y-88686683D01*
X117855666Y-88700724D01*
X117857790Y-88715042D01*
X117858500Y-88729500D01*
X117858500Y-89024500D01*
X117857790Y-89038958D01*
X117855666Y-89053276D01*
X117852149Y-89067317D01*
X117847272Y-89080946D01*
X117841083Y-89094031D01*
X117833642Y-89106447D01*
X117825019Y-89118073D01*
X117815298Y-89128798D01*
X117804573Y-89138519D01*
X117792947Y-89147142D01*
X117780531Y-89154583D01*
X117767446Y-89160772D01*
X117753817Y-89165649D01*
X117739776Y-89169166D01*
X117725458Y-89171290D01*
X117711000Y-89172000D01*
X117366000Y-89172000D01*
X117351542Y-89171290D01*
X117337224Y-89169166D01*
X117323183Y-89165649D01*
X117309554Y-89160772D01*
X117296469Y-89154583D01*
X117284053Y-89147142D01*
X117272427Y-89138519D01*
X117261702Y-89128798D01*
X117251981Y-89118073D01*
X117243358Y-89106447D01*
X117235917Y-89094031D01*
X117229728Y-89080946D01*
X117224851Y-89067317D01*
X117221334Y-89053276D01*
X117219210Y-89038958D01*
X117218500Y-89024500D01*
X117218500Y-88729500D01*
X117219210Y-88715042D01*
X117221334Y-88700724D01*
X117224851Y-88686683D01*
X117229728Y-88673054D01*
X117235917Y-88659969D01*
X117243358Y-88647553D01*
X117251981Y-88635927D01*
X117261702Y-88625202D01*
X117272427Y-88615481D01*
X117284053Y-88606858D01*
X117296469Y-88599417D01*
X117309554Y-88593228D01*
X117323183Y-88588351D01*
X117337224Y-88584834D01*
X117351542Y-88582710D01*
X117366000Y-88582000D01*
X117711000Y-88582000D01*
X117725458Y-88582710D01*
G37*
G36*
X117725458Y-87612710D02*
G01*
X117739776Y-87614834D01*
X117753817Y-87618351D01*
X117767446Y-87623228D01*
X117780531Y-87629417D01*
X117792947Y-87636858D01*
X117804573Y-87645481D01*
X117815298Y-87655202D01*
X117825019Y-87665927D01*
X117833642Y-87677553D01*
X117841083Y-87689969D01*
X117847272Y-87703054D01*
X117852149Y-87716683D01*
X117855666Y-87730724D01*
X117857790Y-87745042D01*
X117858500Y-87759500D01*
X117858500Y-88054500D01*
X117857790Y-88068958D01*
X117855666Y-88083276D01*
X117852149Y-88097317D01*
X117847272Y-88110946D01*
X117841083Y-88124031D01*
X117833642Y-88136447D01*
X117825019Y-88148073D01*
X117815298Y-88158798D01*
X117804573Y-88168519D01*
X117792947Y-88177142D01*
X117780531Y-88184583D01*
X117767446Y-88190772D01*
X117753817Y-88195649D01*
X117739776Y-88199166D01*
X117725458Y-88201290D01*
X117711000Y-88202000D01*
X117366000Y-88202000D01*
X117351542Y-88201290D01*
X117337224Y-88199166D01*
X117323183Y-88195649D01*
X117309554Y-88190772D01*
X117296469Y-88184583D01*
X117284053Y-88177142D01*
X117272427Y-88168519D01*
X117261702Y-88158798D01*
X117251981Y-88148073D01*
X117243358Y-88136447D01*
X117235917Y-88124031D01*
X117229728Y-88110946D01*
X117224851Y-88097317D01*
X117221334Y-88083276D01*
X117219210Y-88068958D01*
X117218500Y-88054500D01*
X117218500Y-87759500D01*
X117219210Y-87745042D01*
X117221334Y-87730724D01*
X117224851Y-87716683D01*
X117229728Y-87703054D01*
X117235917Y-87689969D01*
X117243358Y-87677553D01*
X117251981Y-87665927D01*
X117261702Y-87655202D01*
X117272427Y-87645481D01*
X117284053Y-87636858D01*
X117296469Y-87629417D01*
X117309554Y-87623228D01*
X117323183Y-87618351D01*
X117337224Y-87614834D01*
X117351542Y-87612710D01*
X117366000Y-87612000D01*
X117711000Y-87612000D01*
X117725458Y-87612710D01*
G37*
G36*
X119587058Y-94549710D02*
G01*
X119601376Y-94551834D01*
X119615417Y-94555351D01*
X119629046Y-94560228D01*
X119642131Y-94566417D01*
X119654547Y-94573858D01*
X119666173Y-94582481D01*
X119676898Y-94592202D01*
X119686619Y-94602927D01*
X119695242Y-94614553D01*
X119702683Y-94626969D01*
X119708872Y-94640054D01*
X119713749Y-94653683D01*
X119717266Y-94667724D01*
X119719390Y-94682042D01*
X119720100Y-94696500D01*
X119720100Y-95041500D01*
X119719390Y-95055958D01*
X119717266Y-95070276D01*
X119713749Y-95084317D01*
X119708872Y-95097946D01*
X119702683Y-95111031D01*
X119695242Y-95123447D01*
X119686619Y-95135073D01*
X119676898Y-95145798D01*
X119666173Y-95155519D01*
X119654547Y-95164142D01*
X119642131Y-95171583D01*
X119629046Y-95177772D01*
X119615417Y-95182649D01*
X119601376Y-95186166D01*
X119587058Y-95188290D01*
X119572600Y-95189000D01*
X119277600Y-95189000D01*
X119263142Y-95188290D01*
X119248824Y-95186166D01*
X119234783Y-95182649D01*
X119221154Y-95177772D01*
X119208069Y-95171583D01*
X119195653Y-95164142D01*
X119184027Y-95155519D01*
X119173302Y-95145798D01*
X119163581Y-95135073D01*
X119154958Y-95123447D01*
X119147517Y-95111031D01*
X119141328Y-95097946D01*
X119136451Y-95084317D01*
X119132934Y-95070276D01*
X119130810Y-95055958D01*
X119130100Y-95041500D01*
X119130100Y-94696500D01*
X119130810Y-94682042D01*
X119132934Y-94667724D01*
X119136451Y-94653683D01*
X119141328Y-94640054D01*
X119147517Y-94626969D01*
X119154958Y-94614553D01*
X119163581Y-94602927D01*
X119173302Y-94592202D01*
X119184027Y-94582481D01*
X119195653Y-94573858D01*
X119208069Y-94566417D01*
X119221154Y-94560228D01*
X119234783Y-94555351D01*
X119248824Y-94551834D01*
X119263142Y-94549710D01*
X119277600Y-94549000D01*
X119572600Y-94549000D01*
X119587058Y-94549710D01*
G37*
G36*
X120557058Y-94549710D02*
G01*
X120571376Y-94551834D01*
X120585417Y-94555351D01*
X120599046Y-94560228D01*
X120612131Y-94566417D01*
X120624547Y-94573858D01*
X120636173Y-94582481D01*
X120646898Y-94592202D01*
X120656619Y-94602927D01*
X120665242Y-94614553D01*
X120672683Y-94626969D01*
X120678872Y-94640054D01*
X120683749Y-94653683D01*
X120687266Y-94667724D01*
X120689390Y-94682042D01*
X120690100Y-94696500D01*
X120690100Y-95041500D01*
X120689390Y-95055958D01*
X120687266Y-95070276D01*
X120683749Y-95084317D01*
X120678872Y-95097946D01*
X120672683Y-95111031D01*
X120665242Y-95123447D01*
X120656619Y-95135073D01*
X120646898Y-95145798D01*
X120636173Y-95155519D01*
X120624547Y-95164142D01*
X120612131Y-95171583D01*
X120599046Y-95177772D01*
X120585417Y-95182649D01*
X120571376Y-95186166D01*
X120557058Y-95188290D01*
X120542600Y-95189000D01*
X120247600Y-95189000D01*
X120233142Y-95188290D01*
X120218824Y-95186166D01*
X120204783Y-95182649D01*
X120191154Y-95177772D01*
X120178069Y-95171583D01*
X120165653Y-95164142D01*
X120154027Y-95155519D01*
X120143302Y-95145798D01*
X120133581Y-95135073D01*
X120124958Y-95123447D01*
X120117517Y-95111031D01*
X120111328Y-95097946D01*
X120106451Y-95084317D01*
X120102934Y-95070276D01*
X120100810Y-95055958D01*
X120100100Y-95041500D01*
X120100100Y-94696500D01*
X120100810Y-94682042D01*
X120102934Y-94667724D01*
X120106451Y-94653683D01*
X120111328Y-94640054D01*
X120117517Y-94626969D01*
X120124958Y-94614553D01*
X120133581Y-94602927D01*
X120143302Y-94592202D01*
X120154027Y-94582481D01*
X120165653Y-94573858D01*
X120178069Y-94566417D01*
X120191154Y-94560228D01*
X120204783Y-94555351D01*
X120218824Y-94551834D01*
X120233142Y-94549710D01*
X120247600Y-94549000D01*
X120542600Y-94549000D01*
X120557058Y-94549710D01*
G37*
G36*
X119587058Y-95591110D02*
G01*
X119601376Y-95593234D01*
X119615417Y-95596751D01*
X119629046Y-95601628D01*
X119642131Y-95607817D01*
X119654547Y-95615258D01*
X119666173Y-95623881D01*
X119676898Y-95633602D01*
X119686619Y-95644327D01*
X119695242Y-95655953D01*
X119702683Y-95668369D01*
X119708872Y-95681454D01*
X119713749Y-95695083D01*
X119717266Y-95709124D01*
X119719390Y-95723442D01*
X119720100Y-95737900D01*
X119720100Y-96082900D01*
X119719390Y-96097358D01*
X119717266Y-96111676D01*
X119713749Y-96125717D01*
X119708872Y-96139346D01*
X119702683Y-96152431D01*
X119695242Y-96164847D01*
X119686619Y-96176473D01*
X119676898Y-96187198D01*
X119666173Y-96196919D01*
X119654547Y-96205542D01*
X119642131Y-96212983D01*
X119629046Y-96219172D01*
X119615417Y-96224049D01*
X119601376Y-96227566D01*
X119587058Y-96229690D01*
X119572600Y-96230400D01*
X119277600Y-96230400D01*
X119263142Y-96229690D01*
X119248824Y-96227566D01*
X119234783Y-96224049D01*
X119221154Y-96219172D01*
X119208069Y-96212983D01*
X119195653Y-96205542D01*
X119184027Y-96196919D01*
X119173302Y-96187198D01*
X119163581Y-96176473D01*
X119154958Y-96164847D01*
X119147517Y-96152431D01*
X119141328Y-96139346D01*
X119136451Y-96125717D01*
X119132934Y-96111676D01*
X119130810Y-96097358D01*
X119130100Y-96082900D01*
X119130100Y-95737900D01*
X119130810Y-95723442D01*
X119132934Y-95709124D01*
X119136451Y-95695083D01*
X119141328Y-95681454D01*
X119147517Y-95668369D01*
X119154958Y-95655953D01*
X119163581Y-95644327D01*
X119173302Y-95633602D01*
X119184027Y-95623881D01*
X119195653Y-95615258D01*
X119208069Y-95607817D01*
X119221154Y-95601628D01*
X119234783Y-95596751D01*
X119248824Y-95593234D01*
X119263142Y-95591110D01*
X119277600Y-95590400D01*
X119572600Y-95590400D01*
X119587058Y-95591110D01*
G37*
G36*
X120557058Y-95591110D02*
G01*
X120571376Y-95593234D01*
X120585417Y-95596751D01*
X120599046Y-95601628D01*
X120612131Y-95607817D01*
X120624547Y-95615258D01*
X120636173Y-95623881D01*
X120646898Y-95633602D01*
X120656619Y-95644327D01*
X120665242Y-95655953D01*
X120672683Y-95668369D01*
X120678872Y-95681454D01*
X120683749Y-95695083D01*
X120687266Y-95709124D01*
X120689390Y-95723442D01*
X120690100Y-95737900D01*
X120690100Y-96082900D01*
X120689390Y-96097358D01*
X120687266Y-96111676D01*
X120683749Y-96125717D01*
X120678872Y-96139346D01*
X120672683Y-96152431D01*
X120665242Y-96164847D01*
X120656619Y-96176473D01*
X120646898Y-96187198D01*
X120636173Y-96196919D01*
X120624547Y-96205542D01*
X120612131Y-96212983D01*
X120599046Y-96219172D01*
X120585417Y-96224049D01*
X120571376Y-96227566D01*
X120557058Y-96229690D01*
X120542600Y-96230400D01*
X120247600Y-96230400D01*
X120233142Y-96229690D01*
X120218824Y-96227566D01*
X120204783Y-96224049D01*
X120191154Y-96219172D01*
X120178069Y-96212983D01*
X120165653Y-96205542D01*
X120154027Y-96196919D01*
X120143302Y-96187198D01*
X120133581Y-96176473D01*
X120124958Y-96164847D01*
X120117517Y-96152431D01*
X120111328Y-96139346D01*
X120106451Y-96125717D01*
X120102934Y-96111676D01*
X120100810Y-96097358D01*
X120100100Y-96082900D01*
X120100100Y-95737900D01*
X120100810Y-95723442D01*
X120102934Y-95709124D01*
X120106451Y-95695083D01*
X120111328Y-95681454D01*
X120117517Y-95668369D01*
X120124958Y-95655953D01*
X120133581Y-95644327D01*
X120143302Y-95633602D01*
X120154027Y-95623881D01*
X120165653Y-95615258D01*
X120178069Y-95607817D01*
X120191154Y-95601628D01*
X120204783Y-95596751D01*
X120218824Y-95593234D01*
X120233142Y-95591110D01*
X120247600Y-95590400D01*
X120542600Y-95590400D01*
X120557058Y-95591110D01*
G37*
G36*
X126074158Y-87144177D02*
G01*
X126088538Y-87145831D01*
X126102687Y-87148887D01*
X126116468Y-87153315D01*
X126129749Y-87159072D01*
X126142401Y-87166104D01*
X126154303Y-87174341D01*
X126165341Y-87183706D01*
X126175407Y-87194108D01*
X126184406Y-87205446D01*
X126192250Y-87217611D01*
X126364750Y-87516389D01*
X126371363Y-87529265D01*
X126376683Y-87542727D01*
X126380658Y-87556645D01*
X126383249Y-87570886D01*
X126384432Y-87585313D01*
X126384195Y-87599786D01*
X126382541Y-87614166D01*
X126379485Y-87628315D01*
X126375057Y-87642096D01*
X126369300Y-87655376D01*
X126362268Y-87668029D01*
X126354031Y-87679931D01*
X126344666Y-87690969D01*
X126334265Y-87701035D01*
X126322927Y-87710034D01*
X126310761Y-87717878D01*
X126055283Y-87865378D01*
X126042407Y-87871991D01*
X126028945Y-87877311D01*
X126015027Y-87881286D01*
X126000785Y-87883877D01*
X125986359Y-87885060D01*
X125971886Y-87884823D01*
X125957506Y-87883169D01*
X125943357Y-87880113D01*
X125929576Y-87875685D01*
X125916295Y-87869928D01*
X125903643Y-87862896D01*
X125891741Y-87854659D01*
X125880703Y-87845294D01*
X125870637Y-87834892D01*
X125861638Y-87823554D01*
X125853794Y-87811389D01*
X125681294Y-87512611D01*
X125674681Y-87499735D01*
X125669361Y-87486273D01*
X125665386Y-87472355D01*
X125662795Y-87458114D01*
X125661612Y-87443687D01*
X125661849Y-87429214D01*
X125663503Y-87414834D01*
X125666559Y-87400685D01*
X125670987Y-87386904D01*
X125676744Y-87373624D01*
X125683776Y-87360971D01*
X125692013Y-87349069D01*
X125701378Y-87338031D01*
X125711779Y-87327965D01*
X125723117Y-87318966D01*
X125735283Y-87311122D01*
X125990761Y-87163622D01*
X126003637Y-87157009D01*
X126017099Y-87151689D01*
X126031017Y-87147714D01*
X126045259Y-87145123D01*
X126059685Y-87143940D01*
X126074158Y-87144177D01*
G37*
G36*
X125234114Y-87629177D02*
G01*
X125248494Y-87630831D01*
X125262643Y-87633887D01*
X125276424Y-87638315D01*
X125289705Y-87644072D01*
X125302357Y-87651104D01*
X125314259Y-87659341D01*
X125325297Y-87668706D01*
X125335363Y-87679108D01*
X125344362Y-87690446D01*
X125352206Y-87702611D01*
X125524706Y-88001389D01*
X125531319Y-88014265D01*
X125536639Y-88027727D01*
X125540614Y-88041645D01*
X125543205Y-88055886D01*
X125544388Y-88070313D01*
X125544151Y-88084786D01*
X125542497Y-88099166D01*
X125539441Y-88113315D01*
X125535013Y-88127096D01*
X125529256Y-88140376D01*
X125522224Y-88153029D01*
X125513987Y-88164931D01*
X125504622Y-88175969D01*
X125494221Y-88186035D01*
X125482883Y-88195034D01*
X125470717Y-88202878D01*
X125215239Y-88350378D01*
X125202363Y-88356991D01*
X125188901Y-88362311D01*
X125174983Y-88366286D01*
X125160741Y-88368877D01*
X125146315Y-88370060D01*
X125131842Y-88369823D01*
X125117462Y-88368169D01*
X125103313Y-88365113D01*
X125089532Y-88360685D01*
X125076251Y-88354928D01*
X125063599Y-88347896D01*
X125051697Y-88339659D01*
X125040659Y-88330294D01*
X125030593Y-88319892D01*
X125021594Y-88308554D01*
X125013750Y-88296389D01*
X124841250Y-87997611D01*
X124834637Y-87984735D01*
X124829317Y-87971273D01*
X124825342Y-87957355D01*
X124822751Y-87943114D01*
X124821568Y-87928687D01*
X124821805Y-87914214D01*
X124823459Y-87899834D01*
X124826515Y-87885685D01*
X124830943Y-87871904D01*
X124836700Y-87858624D01*
X124843732Y-87845971D01*
X124851969Y-87834069D01*
X124861334Y-87823031D01*
X124871735Y-87812965D01*
X124883073Y-87803966D01*
X124895239Y-87796122D01*
X125150717Y-87648622D01*
X125163593Y-87642009D01*
X125177055Y-87636689D01*
X125190973Y-87632714D01*
X125205215Y-87630123D01*
X125219641Y-87628940D01*
X125234114Y-87629177D01*
G37*
G36*
X123367090Y-86147186D02*
G01*
X123917090Y-87099814D01*
X123007764Y-87624814D01*
X122457764Y-86672186D01*
X123367090Y-86147186D01*
G37*
G36*
X124969236Y-85222186D02*
G01*
X125519236Y-86174814D01*
X124609910Y-86699814D01*
X124059910Y-85747186D01*
X124969236Y-85222186D01*
G37*
D24*
X116531000Y-78049000D03*
X117031000Y-78049000D03*
X117531000Y-78049000D03*
X118031000Y-78049000D03*
X118531000Y-78049000D03*
X119031000Y-78049000D03*
X119531000Y-78049000D03*
X120031000Y-78049000D03*
X120531000Y-78049000D03*
X121031000Y-78049000D03*
X121531000Y-78049000D03*
X122031000Y-78049000D03*
X122531000Y-78049000D03*
X123031000Y-78049000D03*
X123531000Y-78049000D03*
X124031000Y-78049000D03*
X124531000Y-78049000D03*
X125031000Y-78049000D03*
X125531000Y-78049000D03*
X125531000Y-83749000D03*
X125031000Y-83749000D03*
X124531000Y-83749000D03*
X124031000Y-83749000D03*
X123531000Y-83749000D03*
X123031000Y-83749000D03*
X122531000Y-83749000D03*
X122031000Y-83749000D03*
X121531000Y-83749000D03*
X121031000Y-83749000D03*
X120531000Y-83749000D03*
X120031000Y-83749000D03*
X119531000Y-83749000D03*
X119031000Y-83749000D03*
X118531000Y-83749000D03*
X118031000Y-83749000D03*
X117531000Y-83749000D03*
X117031000Y-83749000D03*
X116531000Y-83749000D03*
D25*
X123952000Y-87757000D03*
X124714000Y-87249000D03*
X102006400Y-99669600D03*
X100266500Y-73723500D03*
X115316000Y-86423500D03*
X121539000Y-82359500D03*
X116200000Y-82100000D03*
X115658900Y-84010500D03*
X115341400Y-93192600D03*
X123698000Y-93167200D03*
X120169940Y-86934040D03*
X115250000Y-87884000D03*
X117551200Y-86888320D03*
X119608600Y-91186000D03*
X118214140Y-86268560D03*
X120954800Y-92227400D03*
X117602000Y-90233500D03*
X116878100Y-86121240D03*
X119710200Y-79375000D03*
X121539000Y-79375000D03*
X101498400Y-85725000D03*
X120523000Y-85344000D03*
X114274600Y-85725000D03*
X105841800Y-81915000D03*
X120523000Y-81788000D03*
X104711500Y-80645000D03*
X118541800Y-80264000D03*
X119557800Y-82626200D03*
M02*
